<svg width="123" height="142" viewBox="0 0 123 142" fill="none" xmlns="http://www.w3.org/2000/svg">
<path d="M0 8C0 3.58172 3.58172 0 8 0H114.532C118.951 0 122.532 3.58172 122.532 8V134C122.532 138.418 118.951 142 114.532 142H8C3.58173 142 0 138.418 0 134V8Z" fill="#6B30C7"/>
<mask id="mask0_9417_4453" style="mask-type:alpha" maskUnits="userSpaceOnUse" x="0" y="0" width="123" height="142">
<rect width="122.532" height="142" rx="8" fill="#6B30C7"/>
</mask>
<g mask="url(#mask0_9417_4453)">
<path d="M26.5519 128.63V129.218H24.8511V128.63H26.5519ZM25.2372 127.953H26.0205V130.586C26.0205 130.659 26.0316 130.715 26.0536 130.755C26.0757 130.795 26.1063 130.822 26.1456 130.838C26.186 130.854 26.2326 130.862 26.2853 130.862C26.3221 130.862 26.3589 130.859 26.3956 130.853C26.4324 130.845 26.4606 130.84 26.4802 130.836L26.6034 131.419C26.5642 131.431 26.509 131.446 26.4379 131.461C26.3668 131.479 26.2804 131.489 26.1787 131.493C25.9899 131.5 25.8244 131.475 25.6822 131.417C25.5412 131.36 25.4315 131.27 25.3531 131.149C25.2746 131.028 25.236 130.874 25.2372 130.689V127.953Z" fill="#FFFF00"/>
<path d="M22.7896 131.455V128.63H23.549V129.123H23.5784C23.6299 128.948 23.7163 128.815 23.8376 128.726C23.959 128.635 24.0987 128.59 24.2569 128.59C24.2961 128.59 24.3384 128.592 24.3838 128.597C24.4291 128.602 24.469 128.609 24.5033 128.617V129.312C24.4665 129.301 24.4156 129.292 24.3507 129.283C24.2857 129.274 24.2262 129.27 24.1723 129.27C24.0571 129.27 23.9541 129.295 23.8634 129.346C23.7739 129.395 23.7028 129.463 23.6501 129.552C23.5986 129.64 23.5729 129.742 23.5729 129.857V131.455H22.7896Z" fill="#FFFF00"/>
<path d="M20.8906 131.508C20.605 131.508 20.358 131.447 20.1496 131.326C19.9424 131.203 19.7824 131.033 19.6697 130.815C19.5569 130.595 19.5005 130.341 19.5005 130.052C19.5005 129.76 19.5569 129.505 19.6697 129.287C19.7824 129.067 19.9424 128.897 20.1496 128.776C20.358 128.653 20.605 128.592 20.8906 128.592C21.1762 128.592 21.4226 128.653 21.6298 128.776C21.8382 128.897 21.9988 129.067 22.1115 129.287C22.2243 129.505 22.2807 129.76 22.2807 130.052C22.2807 130.341 22.2243 130.595 22.1115 130.815C21.9988 131.033 21.8382 131.203 21.6298 131.326C21.4226 131.447 21.1762 131.508 20.8906 131.508ZM20.8943 130.901C21.0242 130.901 21.1327 130.865 21.2197 130.791C21.3068 130.716 21.3723 130.614 21.4165 130.486C21.4618 130.357 21.4845 130.211 21.4845 130.046C21.4845 129.882 21.4618 129.736 21.4165 129.607C21.3723 129.478 21.3068 129.376 21.2197 129.302C21.1327 129.227 21.0242 129.189 20.8943 129.189C20.7631 129.189 20.6528 129.227 20.5633 129.302C20.475 129.376 20.4082 129.478 20.3629 129.607C20.3187 129.736 20.2967 129.882 20.2967 130.046C20.2967 130.211 20.3187 130.357 20.3629 130.486C20.4082 130.614 20.475 130.716 20.5633 130.791C20.6528 130.865 20.7631 130.901 20.8943 130.901Z" fill="#FFFF00"/>
<path d="M16.3374 132.512V128.629H17.1097V129.103H17.1446C17.1789 129.027 17.2286 128.95 17.2936 128.871C17.3598 128.792 17.4456 128.725 17.551 128.673C17.6576 128.619 17.79 128.592 17.9482 128.592C18.1541 128.592 18.3441 128.646 18.5182 128.754C18.6922 128.86 18.8314 129.021 18.9356 129.237C19.0398 129.452 19.0919 129.721 19.0919 130.044C19.0919 130.359 19.041 130.625 18.9392 130.842C18.8387 131.058 18.7014 131.222 18.5274 131.333C18.3545 131.444 18.1608 131.499 17.9463 131.499C17.7943 131.499 17.665 131.474 17.5583 131.423C17.4529 131.373 17.3665 131.31 17.2991 131.234C17.2317 131.157 17.1802 131.079 17.1446 131.001H17.1207V132.512H16.3374ZM17.1042 130.041C17.1042 130.209 17.1275 130.355 17.174 130.48C17.2206 130.605 17.288 130.703 17.3763 130.773C17.4646 130.841 17.5718 130.876 17.6981 130.876C17.8256 130.876 17.9334 130.841 18.0217 130.771C18.11 130.7 18.1768 130.602 18.2221 130.477C18.2687 130.35 18.292 130.205 18.292 130.041C18.292 129.878 18.2693 129.734 18.224 129.61C18.1786 129.487 18.1118 129.39 18.0235 129.32C17.9353 129.25 17.8268 129.215 17.6981 129.215C17.5706 129.215 17.4627 129.249 17.3745 129.316C17.2874 129.384 17.2206 129.479 17.174 129.603C17.1275 129.727 17.1042 129.873 17.1042 130.041Z" fill="#FFFF00"/>
<path d="M14.53 131.508C14.2395 131.508 13.9894 131.449 13.7798 131.332C13.5714 131.213 13.4108 131.045 13.2981 130.828C13.1853 130.61 13.1289 130.351 13.1289 130.054C13.1289 129.763 13.1853 129.508 13.2981 129.289C13.4108 129.069 13.5696 128.898 13.7743 128.776C13.9803 128.653 14.2217 128.592 14.4988 128.592C14.6851 128.592 14.8586 128.622 15.0192 128.682C15.181 128.741 15.3219 128.83 15.4421 128.949C15.5634 129.067 15.6578 129.217 15.7252 129.397C15.7927 129.576 15.8264 129.786 15.8264 130.026V130.241H13.4415V129.756H15.089C15.089 129.643 15.0645 129.543 15.0155 129.456C14.9664 129.369 14.8984 129.301 14.8114 129.252C14.7256 129.202 14.6257 129.177 14.5117 129.177C14.3927 129.177 14.2873 129.204 14.1954 129.259C14.1047 129.313 14.0336 129.386 13.9821 129.478C13.9306 129.569 13.9043 129.67 13.903 129.781V130.243C13.903 130.383 13.9288 130.503 13.9803 130.605C14.033 130.707 14.1071 130.785 14.2027 130.841C14.2984 130.896 14.4117 130.923 14.5429 130.923C14.6299 130.923 14.7096 130.911 14.782 130.887C14.8543 130.862 14.9162 130.825 14.9677 130.776C15.0192 130.727 15.0584 130.667 15.0853 130.596L15.8098 130.644C15.773 130.818 15.6977 130.97 15.5837 131.1C15.4709 131.229 15.325 131.329 15.146 131.401C14.9683 131.473 14.763 131.508 14.53 131.508Z" fill="#FFFF00"/>
<path d="M9.90479 131.453V127.688H11.3905C11.6749 127.688 11.9176 127.738 12.1187 127.84C12.3209 127.941 12.4748 128.083 12.5802 128.269C12.6868 128.452 12.7402 128.669 12.7402 128.918C12.7402 129.168 12.6862 129.383 12.5783 129.563C12.4705 129.742 12.3142 129.879 12.1095 129.975C11.906 130.071 11.6596 130.118 11.3703 130.118H10.3755V129.478H11.2416C11.3936 129.478 11.5198 129.458 11.6203 129.416C11.7209 129.374 11.7956 129.312 11.8447 129.228C11.8949 129.145 11.9201 129.041 11.9201 128.918C11.9201 128.793 11.8949 128.687 11.8447 128.601C11.7956 128.516 11.7203 128.451 11.6185 128.406C11.518 128.361 11.3911 128.338 11.2379 128.338H10.701V131.453H9.90479ZM11.9385 129.74L12.8744 131.453H11.9955L11.0798 129.74H11.9385Z" fill="#FFFF00"/>
<path d="M30.8159 124.567V123.94L32.3881 121.463H32.9287V122.331H32.6087L31.6176 123.899V123.929H33.8517V124.567H30.8159ZM32.6234 125.229V124.375L32.6381 124.098V121.463H33.3847V125.229H32.6234Z" fill="#FFFF00"/>
<path d="M27.692 125.227V124.654L29.0325 123.413C29.1465 123.302 29.2421 123.203 29.3194 123.115C29.3978 123.026 29.4573 122.94 29.4977 122.855C29.5382 122.77 29.5584 122.677 29.5584 122.578C29.5584 122.467 29.5333 122.372 29.483 122.293C29.4327 122.212 29.3641 122.15 29.2771 122.107C29.19 122.063 29.0913 122.041 28.981 122.041C28.8658 122.041 28.7653 122.064 28.6795 122.111C28.5937 122.157 28.5275 122.224 28.4809 122.311C28.4343 122.398 28.411 122.502 28.411 122.622H27.6553C27.6553 122.376 27.711 122.162 27.8226 121.98C27.9342 121.799 28.0904 121.658 28.2915 121.559C28.4925 121.46 28.7242 121.41 28.9865 121.41C29.2562 121.41 29.491 121.458 29.6908 121.554C29.8918 121.648 30.0481 121.779 30.1597 121.947C30.2712 122.115 30.327 122.307 30.327 122.524C30.327 122.667 30.2988 122.807 30.2424 122.946C30.1872 123.084 30.0886 123.238 29.9464 123.407C29.8042 123.575 29.6037 123.777 29.3451 124.012L28.7953 124.551V124.577H30.3766V125.227H27.692Z" fill="#FFFF00"/>
<path d="M25.6042 125.31C25.2879 125.309 25.0158 125.231 24.7878 125.077C24.561 124.922 24.3863 124.698 24.2637 124.405C24.1424 124.113 24.0823 123.76 24.0835 123.348C24.0835 122.938 24.1442 122.588 24.2656 122.298C24.3881 122.009 24.5628 121.789 24.7896 121.638C25.0176 121.486 25.2891 121.41 25.6042 121.41C25.9192 121.41 26.1901 121.486 26.4169 121.638C26.6449 121.79 26.8202 122.011 26.9428 122.3C27.0654 122.588 27.1261 122.938 27.1248 123.348C27.1248 123.761 27.0635 124.114 26.9409 124.407C26.8196 124.7 26.6455 124.924 26.4187 125.078C26.192 125.233 25.9204 125.31 25.6042 125.31ZM25.6042 124.65C25.8199 124.65 25.9921 124.542 26.1209 124.325C26.2496 124.108 26.3133 123.782 26.3121 123.348C26.3121 123.063 26.2827 122.825 26.2238 122.635C26.1662 122.445 26.0841 122.302 25.9774 122.206C25.872 122.111 25.7476 122.063 25.6042 122.063C25.3896 122.063 25.218 122.17 25.0893 122.385C24.9606 122.599 24.8956 122.92 24.8944 123.348C24.8944 123.638 24.9232 123.879 24.9808 124.073C25.0397 124.265 25.1224 124.41 25.2291 124.507C25.3357 124.602 25.4607 124.65 25.6042 124.65Z" fill="#FFFF00"/>
<path d="M20.8659 125.227V124.654L22.2063 123.413C22.3203 123.302 22.416 123.203 22.4932 123.115C22.5716 123.026 22.6311 122.94 22.6715 122.855C22.712 122.77 22.7322 122.677 22.7322 122.578C22.7322 122.467 22.7071 122.372 22.6568 122.293C22.6066 122.212 22.5379 122.15 22.4509 122.107C22.3639 122.063 22.2652 122.041 22.1548 122.041C22.0396 122.041 21.9391 122.064 21.8533 122.111C21.7675 122.157 21.7013 122.224 21.6547 122.311C21.6081 122.398 21.5848 122.502 21.5848 122.622H20.8291C20.8291 122.376 20.8849 122.162 20.9964 121.98C21.108 121.799 21.2643 121.658 21.4653 121.559C21.6664 121.46 21.898 121.41 22.1604 121.41C22.43 121.41 22.6648 121.458 22.8646 121.554C23.0656 121.648 23.2219 121.779 23.3335 121.947C23.445 122.115 23.5008 122.307 23.5008 122.524C23.5008 122.667 23.4726 122.807 23.4162 122.946C23.3611 123.084 23.2624 123.238 23.1202 123.407C22.978 123.575 22.7776 123.777 22.5189 124.012L21.9691 124.551V124.577H23.5505V125.227H20.8659Z" fill="#FFFF00"/>
<path d="M17.8674 125.283C17.5769 125.283 17.3268 125.225 17.1172 125.107C16.9088 124.988 16.7483 124.82 16.6355 124.603C16.5227 124.385 16.4663 124.127 16.4663 123.829C16.4663 123.538 16.5227 123.284 16.6355 123.064C16.7483 122.845 16.907 122.674 17.1117 122.551C17.3177 122.428 17.5591 122.367 17.8362 122.367C18.0225 122.367 18.196 122.397 18.3566 122.457C18.5184 122.516 18.6593 122.605 18.7795 122.724C18.9008 122.843 18.9952 122.992 19.0626 123.173C19.1301 123.352 19.1638 123.561 19.1638 123.801V124.017H16.7789V123.531H18.4264C18.4264 123.418 18.4019 123.318 18.3529 123.231C18.3038 123.144 18.2358 123.076 18.1488 123.027C18.063 122.977 17.9631 122.952 17.8491 122.952C17.7302 122.952 17.6247 122.979 17.5328 123.035C17.4421 123.089 17.371 123.162 17.3195 123.253C17.268 123.344 17.2417 123.445 17.2404 123.557V124.018C17.2404 124.158 17.2662 124.279 17.3177 124.381C17.3704 124.482 17.4445 124.561 17.5401 124.616C17.6358 124.671 17.7492 124.699 17.8803 124.699C17.9674 124.699 18.047 124.686 18.1194 124.662C18.1917 124.637 18.2536 124.601 18.3051 124.552C18.3566 124.503 18.3958 124.443 18.4227 124.371L19.1472 124.419C19.1104 124.593 19.0351 124.745 18.9211 124.875C18.8083 125.004 18.6624 125.104 18.4834 125.177C18.3057 125.248 18.1004 125.283 17.8674 125.283Z" fill="#FFFF00"/>
<path d="M14.1329 123.596V125.229H13.3496V121.463H14.1109V122.903H14.144C14.2077 122.736 14.3107 122.605 14.4529 122.511C14.5951 122.415 14.7734 122.368 14.9879 122.368C15.1841 122.368 15.3551 122.41 15.501 122.496C15.6481 122.581 15.7621 122.703 15.843 122.862C15.9251 123.02 15.9656 123.21 15.9643 123.43V125.229H15.181V123.57C15.1822 123.396 15.1381 123.261 15.0486 123.164C14.9604 123.067 14.8366 123.018 14.6772 123.018C14.5705 123.018 14.4762 123.041 14.394 123.087C14.3131 123.132 14.2494 123.198 14.2028 123.285C14.1574 123.371 14.1341 123.474 14.1329 123.596Z" fill="#FFFF00"/>
<path d="M9.76172 122.119V121.463H12.8545V122.119H11.7016V125.229H10.9146V122.119H9.76172Z" fill="#FFFF00"/>
<path d="M32.4189 113.895C32.2093 113.895 32.0291 113.868 31.8783 113.814C31.7275 113.761 31.6019 113.692 31.5014 113.605C31.4021 113.519 31.323 113.427 31.2642 113.329L31.6099 113.086C31.6491 113.138 31.6987 113.196 31.7588 113.263C31.8189 113.33 31.901 113.388 32.0052 113.437C32.1106 113.488 32.2485 113.513 32.4189 113.513C32.6469 113.513 32.8351 113.457 32.9834 113.347C33.1317 113.237 33.2059 113.064 33.2059 112.829V112.255H33.1691C33.1372 112.306 33.0919 112.37 33.0331 112.446C32.9754 112.521 32.8921 112.588 32.783 112.647C32.6751 112.704 32.5292 112.733 32.3454 112.733C32.1173 112.733 31.9126 112.679 31.7312 112.571C31.551 112.463 31.4082 112.306 31.3028 112.1C31.1986 111.895 31.1465 111.644 31.1465 111.35C31.1465 111.061 31.1974 110.809 31.2991 110.595C31.4008 110.379 31.5424 110.212 31.7239 110.094C31.9053 109.975 32.1149 109.916 32.3527 109.916C32.5366 109.916 32.6825 109.947 32.7903 110.008C32.8994 110.068 32.9828 110.137 33.0404 110.214C33.0992 110.29 33.1446 110.352 33.1765 110.401H33.2206V109.953H33.6398V112.858C33.6398 113.101 33.5847 113.298 33.4744 113.45C33.3653 113.603 33.2182 113.716 33.0331 113.787C32.8492 113.859 32.6445 113.895 32.4189 113.895ZM32.4042 112.343C32.5783 112.343 32.7254 112.303 32.8455 112.224C32.9656 112.144 33.057 112.029 33.1195 111.88C33.182 111.73 33.2133 111.551 33.2133 111.343C33.2133 111.139 33.1826 110.96 33.1213 110.804C33.06 110.648 32.9693 110.526 32.8492 110.438C32.729 110.35 32.5807 110.306 32.4042 110.306C32.2203 110.306 32.0671 110.352 31.9445 110.446C31.8231 110.539 31.7318 110.664 31.6705 110.821C31.6105 110.978 31.5804 111.152 31.5804 111.343C31.5804 111.539 31.6111 111.712 31.6724 111.863C31.7349 112.013 31.8268 112.13 31.9482 112.216C32.0708 112.301 32.2228 112.343 32.4042 112.343Z" fill="white"/>
<path d="M28.6835 111.078V112.777H28.2495V109.953H28.6687V110.394H28.7055C28.7717 110.251 28.8722 110.135 29.0071 110.048C29.1419 109.96 29.316 109.916 29.5293 109.916C29.7205 109.916 29.8878 109.955 30.0313 110.034C30.1747 110.111 30.2862 110.229 30.3659 110.387C30.4456 110.544 30.4854 110.742 30.4854 110.982V112.777H30.0515V111.012C30.0515 110.79 29.9939 110.617 29.8787 110.493C29.7634 110.368 29.6053 110.306 29.4043 110.306C29.2657 110.306 29.1419 110.336 29.0328 110.396C28.9249 110.456 28.8398 110.544 28.7772 110.659C28.7147 110.774 28.6835 110.914 28.6835 111.078Z" fill="white"/>
<path d="M27.0209 112.778V109.954H27.4548V112.778H27.0209ZM27.2415 109.483C27.1569 109.483 27.084 109.454 27.0227 109.397C26.9626 109.339 26.9326 109.27 26.9326 109.189C26.9326 109.108 26.9626 109.039 27.0227 108.981C27.084 108.923 27.1569 108.895 27.2415 108.895C27.3261 108.895 27.3984 108.923 27.4585 108.981C27.5198 109.039 27.5504 109.108 27.5504 109.189C27.5504 109.27 27.5198 109.339 27.4585 109.397C27.3984 109.454 27.3261 109.483 27.2415 109.483Z" fill="white"/>
<path d="M26.368 109.952V110.32H24.9043V109.952H26.368ZM25.3309 109.275H25.7648V111.967C25.7648 112.09 25.7826 112.182 25.8182 112.243C25.8549 112.303 25.9015 112.344 25.9579 112.365C26.0155 112.384 26.0762 112.394 26.1399 112.394C26.1878 112.394 26.227 112.391 26.2576 112.387C26.2883 112.38 26.3128 112.376 26.3312 112.372L26.4194 112.762C26.39 112.773 26.349 112.784 26.2962 112.795C26.2435 112.807 26.1767 112.813 26.0958 112.813C25.9732 112.813 25.8531 112.787 25.7354 112.734C25.619 112.681 25.5221 112.601 25.4449 112.493C25.3689 112.385 25.3309 112.249 25.3309 112.085V109.275Z" fill="white"/>
<path d="M23.3107 112.836C23.0386 112.836 22.8038 112.776 22.6064 112.656C22.4103 112.534 22.2589 112.365 22.1523 112.148C22.0469 111.93 21.9941 111.676 21.9941 111.387C21.9941 111.098 22.0469 110.843 22.1523 110.622C22.2589 110.4 22.4072 110.227 22.5973 110.104C22.7885 109.979 23.0116 109.916 23.2666 109.916C23.4137 109.916 23.5589 109.941 23.7024 109.99C23.8458 110.039 23.9763 110.118 24.094 110.229C24.2117 110.338 24.3055 110.482 24.3753 110.663C24.4452 110.843 24.4801 111.065 24.4801 111.328V111.512H22.3031V111.137H24.0388C24.0388 110.978 24.007 110.835 23.9432 110.71C23.8807 110.585 23.7912 110.487 23.6748 110.414C23.5595 110.342 23.4235 110.306 23.2666 110.306C23.0937 110.306 22.9442 110.349 22.8179 110.435C22.6929 110.519 22.5966 110.629 22.5292 110.766C22.4618 110.902 22.4281 111.047 22.4281 111.203V111.453C22.4281 111.667 22.4649 111.847 22.5384 111.996C22.6132 112.143 22.7168 112.255 22.8492 112.332C22.9816 112.408 23.1354 112.446 23.3107 112.446C23.4247 112.446 23.5277 112.43 23.6196 112.398C23.7128 112.365 23.7931 112.316 23.8605 112.251C23.9279 112.185 23.98 112.103 24.0168 112.005L24.436 112.123C24.3919 112.265 24.3177 112.39 24.2135 112.498C24.1093 112.604 23.9806 112.688 23.8274 112.748C23.6742 112.807 23.5019 112.836 23.3107 112.836Z" fill="white"/>
<path d="M19.8308 111.748L19.8234 111.211H19.9117L21.1473 109.953H21.6843L20.3677 111.284H20.3309L19.8308 111.748ZM19.4263 112.778V109.012H19.8602V112.778H19.4263ZM21.2209 112.778L20.1176 111.38L20.4266 111.078L21.7725 112.778H21.2209Z" fill="white"/>
<path d="M17.499 112.777V109.952H17.9183V110.379H17.9477C17.9992 110.239 18.0923 110.126 18.2272 110.039C18.362 109.952 18.514 109.908 18.6832 109.908C18.7151 109.908 18.7549 109.909 18.8027 109.91C18.8505 109.911 18.8867 109.913 18.9112 109.916V110.357C18.8965 110.353 18.8628 110.348 18.8101 110.34C18.7586 110.332 18.704 110.327 18.6464 110.327C18.5091 110.327 18.3865 110.356 18.2787 110.414C18.172 110.47 18.0874 110.549 18.0249 110.649C17.9636 110.749 17.933 110.862 17.933 110.989V112.777H17.499Z" fill="white"/>
<path d="M15.4127 112.843C15.2338 112.843 15.0713 112.81 14.9255 112.742C14.7796 112.674 14.6637 112.575 14.5779 112.446C14.4921 112.316 14.4492 112.159 14.4492 111.975C14.4492 111.814 14.4811 111.682 14.5448 111.582C14.6086 111.48 14.6938 111.401 14.8004 111.343C14.9071 111.285 15.0248 111.242 15.1535 111.214C15.2834 111.185 15.414 111.161 15.5451 111.144C15.7167 111.122 15.8559 111.106 15.9625 111.095C16.0704 111.082 16.1488 111.062 16.1979 111.034C16.2481 111.006 16.2733 110.957 16.2733 110.887V110.872C16.2733 110.691 16.2236 110.55 16.1243 110.449C16.0263 110.349 15.8773 110.298 15.6775 110.298C15.4703 110.298 15.3079 110.344 15.1902 110.435C15.0726 110.525 14.9898 110.622 14.942 110.725L14.5301 110.578C14.6037 110.406 14.7017 110.273 14.8243 110.177C14.9481 110.08 15.083 110.013 15.2289 109.975C15.376 109.936 15.5206 109.916 15.6628 109.916C15.7535 109.916 15.8577 109.927 15.9754 109.949C16.0943 109.97 16.2089 110.013 16.3192 110.08C16.4308 110.146 16.5233 110.246 16.5969 110.379C16.6704 110.513 16.7072 110.692 16.7072 110.916V112.777H16.2733V112.395H16.2512C16.2218 112.456 16.1728 112.522 16.1041 112.591C16.0355 112.661 15.9441 112.721 15.8301 112.77C15.7161 112.819 15.577 112.843 15.4127 112.843ZM15.4789 112.454C15.6505 112.454 15.7952 112.42 15.9129 112.352C16.0318 112.285 16.1213 112.198 16.1813 112.091C16.2426 111.985 16.2733 111.872 16.2733 111.755V111.358C16.2549 111.38 16.2144 111.4 16.1519 111.418C16.0906 111.435 16.0195 111.451 15.9386 111.464C15.8589 111.477 15.7811 111.488 15.7051 111.497C15.6303 111.506 15.5696 111.513 15.5231 111.519C15.4103 111.534 15.3049 111.558 15.2068 111.591C15.1099 111.623 15.0315 111.671 14.9714 111.736C14.9126 111.8 14.8832 111.887 14.8832 111.997C14.8832 112.148 14.9389 112.262 15.0505 112.34C15.1633 112.416 15.3061 112.454 15.4789 112.454Z" fill="white"/>
<path d="M10.0342 109.012H10.5785L11.8582 112.138H11.9024L13.1821 109.012H13.7264V112.778H13.2998V109.916H13.263L12.0862 112.778H11.6744L10.4975 109.916H10.4608V112.778H10.0342V109.012Z" fill="white"/>
<path d="M28.9822 103.727V104.095H27.5186V103.727H28.9822ZM27.9451 103.051H28.3791V105.743C28.3791 105.865 28.3969 105.957 28.4324 106.019C28.4692 106.079 28.5158 106.119 28.5722 106.14C28.6298 106.16 28.6905 106.169 28.7542 106.169C28.802 106.169 28.8412 106.167 28.8719 106.162C28.9025 106.156 28.927 106.151 28.9454 106.147L29.0337 106.537C29.0043 106.548 28.9632 106.559 28.9105 106.57C28.8578 106.582 28.791 106.589 28.7101 106.589C28.5875 106.589 28.4674 106.562 28.3497 106.509C28.2332 106.457 28.1364 106.376 28.0591 106.269C27.9831 106.161 27.9451 106.025 27.9451 105.86V103.051Z" fill="white"/>
<path d="M25.159 104.852V106.551H24.7251V103.726H25.1443V104.168H25.1811C25.2473 104.024 25.3478 103.909 25.4827 103.822C25.6175 103.734 25.7916 103.689 26.0049 103.689C26.1961 103.689 26.3634 103.729 26.5069 103.807C26.6503 103.884 26.7618 104.002 26.8415 104.16C26.9212 104.317 26.961 104.516 26.961 104.756V106.551H26.5271V104.785C26.5271 104.563 26.4695 104.391 26.3542 104.267C26.239 104.142 26.0809 104.079 25.8798 104.079C25.7413 104.079 25.6175 104.109 25.5084 104.169C25.4005 104.229 25.3153 104.317 25.2528 104.432C25.1903 104.548 25.159 104.687 25.159 104.852Z" fill="white"/>
<path d="M22.8957 106.609C22.6235 106.609 22.3888 106.549 22.1914 106.429C21.9953 106.308 21.8439 106.139 21.7372 105.922C21.6318 105.704 21.5791 105.45 21.5791 105.16C21.5791 104.871 21.6318 104.616 21.7372 104.396C21.8439 104.174 21.9922 104.001 22.1822 103.877C22.3734 103.752 22.5965 103.689 22.8515 103.689C22.9986 103.689 23.1439 103.714 23.2873 103.763C23.4307 103.812 23.5613 103.892 23.679 104.002C23.7966 104.111 23.8904 104.256 23.9603 104.436C24.0302 104.616 24.0651 104.838 24.0651 105.102V105.285H21.888V104.91H23.6238C23.6238 104.751 23.5919 104.609 23.5282 104.484C23.4657 104.359 23.3762 104.26 23.2597 104.188C23.1445 104.115 23.0084 104.079 22.8515 104.079C22.6787 104.079 22.5291 104.122 22.4029 104.208C22.2778 104.293 22.1816 104.403 22.1142 104.539C22.0468 104.675 22.013 104.821 22.013 104.977V105.227C22.013 105.44 22.0498 105.621 22.1234 105.769C22.1982 105.916 22.3017 106.028 22.4341 106.106C22.5665 106.182 22.7204 106.22 22.8957 106.22C23.0097 106.22 23.1126 106.204 23.2046 106.172C23.2977 106.139 23.378 106.09 23.4454 106.025C23.5129 105.958 23.565 105.876 23.6017 105.778L24.021 105.896C23.9768 106.038 23.9027 106.163 23.7985 106.271C23.6943 106.378 23.5656 106.461 23.4123 106.521C23.2591 106.58 23.0869 106.609 22.8957 106.609Z" fill="white"/>
<path d="M21.0891 103.727V104.095H19.6255V103.727H21.0891ZM20.0521 103.051H20.486V105.743C20.486 105.865 20.5038 105.957 20.5394 106.019C20.5761 106.079 20.6227 106.119 20.6791 106.14C20.7367 106.16 20.7974 106.169 20.8611 106.169C20.9089 106.169 20.9482 106.167 20.9788 106.162C21.0095 106.156 21.034 106.151 21.0524 106.147L21.1406 106.537C21.1112 106.548 21.0701 106.559 21.0174 106.57C20.9647 106.582 20.8979 106.589 20.817 106.589C20.6944 106.589 20.5743 106.562 20.4566 106.509C20.3402 106.457 20.2433 106.376 20.1661 106.269C20.0901 106.161 20.0521 106.025 20.0521 105.86V103.051Z" fill="white"/>
<path d="M17.266 104.852V106.551H16.832V103.726H17.2513V104.168H17.288C17.3542 104.024 17.4548 103.909 17.5896 103.822C17.7244 103.734 17.8985 103.689 18.1118 103.689C18.303 103.689 18.4704 103.729 18.6138 103.807C18.7572 103.884 18.8688 104.002 18.9484 104.16C19.0281 104.317 19.068 104.516 19.068 104.756V106.551H18.634V104.785C18.634 104.563 18.5764 104.391 18.4612 104.267C18.3459 104.142 18.1878 104.079 17.9868 104.079C17.8483 104.079 17.7244 104.109 17.6153 104.169C17.5075 104.229 17.4223 104.317 17.3598 104.432C17.2972 104.548 17.266 104.687 17.266 104.852Z" fill="white"/>
<path d="M14.8896 106.609C14.6347 106.609 14.411 106.549 14.2185 106.427C14.0273 106.306 13.8777 106.136 13.7698 105.918C13.6632 105.7 13.6099 105.445 13.6099 105.153C13.6099 104.859 13.6632 104.602 13.7698 104.383C13.8777 104.163 14.0273 103.993 14.2185 103.871C14.411 103.75 14.6347 103.689 14.8896 103.689C15.1446 103.689 15.3677 103.75 15.5589 103.871C15.7514 103.993 15.901 104.163 16.0076 104.383C16.1155 104.602 16.1694 104.859 16.1694 105.153C16.1694 105.445 16.1155 105.7 16.0076 105.918C15.901 106.136 15.7514 106.306 15.5589 106.427C15.3677 106.549 15.1446 106.609 14.8896 106.609ZM14.8896 106.22C15.0833 106.22 15.2427 106.17 15.3677 106.071C15.4928 105.971 15.5853 105.841 15.6454 105.679C15.7054 105.517 15.7355 105.342 15.7355 105.153C15.7355 104.964 15.7054 104.788 15.6454 104.625C15.5853 104.462 15.4928 104.331 15.3677 104.23C15.2427 104.13 15.0833 104.079 14.8896 104.079C14.696 104.079 14.5366 104.13 14.4116 104.23C14.2865 104.331 14.194 104.462 14.1339 104.625C14.0738 104.788 14.0438 104.964 14.0438 105.153C14.0438 105.342 14.0738 105.517 14.1339 105.679C14.194 105.841 14.2865 105.971 14.4116 106.071C14.5366 106.17 14.696 106.22 14.8896 106.22Z" fill="white"/>
<path d="M13.0641 103.963H12.6081C12.5811 103.832 12.5339 103.716 12.4665 103.617C12.4003 103.518 12.3194 103.434 12.2238 103.367C12.1294 103.298 12.0246 103.247 11.9094 103.212C11.7941 103.178 11.674 103.161 11.549 103.161C11.321 103.161 11.1144 103.219 10.9293 103.334C10.7454 103.449 10.5989 103.619 10.4898 103.843C10.382 104.067 10.328 104.343 10.328 104.669C10.328 104.995 10.382 105.27 10.4898 105.494C10.5989 105.719 10.7454 105.888 10.9293 106.004C11.1144 106.119 11.321 106.177 11.549 106.177C11.674 106.177 11.7941 106.159 11.9094 106.125C12.0246 106.091 12.1294 106.04 12.2238 105.972C12.3194 105.904 12.4003 105.82 12.4665 105.721C12.5339 105.62 12.5811 105.505 12.6081 105.375H13.0641C13.0298 105.567 12.9673 105.74 12.8765 105.892C12.7858 106.044 12.6731 106.173 12.5382 106.28C12.4034 106.385 12.252 106.465 12.084 106.52C11.9173 106.576 11.739 106.603 11.549 106.603C11.2278 106.603 10.9422 106.525 10.6921 106.368C10.442 106.211 10.2453 105.988 10.1019 105.698C9.95843 105.409 9.88672 105.066 9.88672 104.669C9.88672 104.272 9.95843 103.928 10.1019 103.639C10.2453 103.35 10.442 103.127 10.6921 102.97C10.9422 102.813 11.2278 102.734 11.549 102.734C11.739 102.734 11.9173 102.762 12.084 102.817C12.252 102.872 12.4034 102.953 12.5382 103.06C12.6731 103.165 12.7858 103.294 12.8765 103.446C12.9673 103.597 13.0298 103.769 13.0641 103.963Z" fill="white"/>
<path d="M45.6676 98.1342L45.2778 98.2445C45.2533 98.1795 45.2171 98.1164 45.1693 98.0551C45.1227 97.9926 45.059 97.9411 44.9781 97.9006C44.8972 97.8602 44.7936 97.84 44.6673 97.84C44.4945 97.84 44.3504 97.8798 44.2352 97.9595C44.1212 98.0379 44.0642 98.1378 44.0642 98.2592C44.0642 98.3671 44.1034 98.4523 44.1819 98.5148C44.2603 98.5773 44.3829 98.6294 44.5496 98.6711L44.9689 98.774C45.2214 98.8353 45.4096 98.9291 45.5334 99.0554C45.6572 99.1804 45.7191 99.3416 45.7191 99.539C45.7191 99.7008 45.6725 99.8454 45.5793 99.9729C45.4874 100.1 45.3587 100.201 45.1932 100.274C45.0277 100.348 44.8353 100.385 44.6158 100.385C44.3278 100.385 44.0893 100.322 43.9006 100.197C43.7118 100.072 43.5923 99.8896 43.542 99.6493L43.9539 99.5463C43.9931 99.6983 44.0673 99.8123 44.1764 99.8883C44.2867 99.9643 44.4307 100.002 44.6085 100.002C44.8107 100.002 44.9713 99.9594 45.0902 99.8736C45.2104 99.7866 45.2704 99.6824 45.2704 99.561C45.2704 99.463 45.2361 99.3808 45.1675 99.3146C45.0988 99.2472 44.9934 99.197 44.8512 99.1639L44.3805 99.0535C44.1218 98.9922 43.9318 98.8972 43.8105 98.7685C43.6903 98.6386 43.6303 98.4762 43.6303 98.2813C43.6303 98.1219 43.675 97.9809 43.7645 97.8583C43.8552 97.7358 43.9784 97.6395 44.1341 97.5697C44.291 97.4998 44.4687 97.4648 44.6673 97.4648C44.9468 97.4648 45.1662 97.5261 45.3256 97.6487C45.4862 97.7713 45.6002 97.9331 45.6676 98.1342Z" fill="white"/>
<path d="M42.9625 98.1342L42.5727 98.2445C42.5482 98.1795 42.512 98.1164 42.4642 98.0551C42.4176 97.9926 42.3539 97.9411 42.273 97.9006C42.1921 97.8602 42.0885 97.84 41.9622 97.84C41.7894 97.84 41.6454 97.8798 41.5301 97.9595C41.4161 98.0379 41.3591 98.1378 41.3591 98.2592C41.3591 98.3671 41.3983 98.4523 41.4768 98.5148C41.5553 98.5773 41.6778 98.6294 41.8446 98.6711L42.2638 98.774C42.5163 98.8353 42.7045 98.9291 42.8283 99.0554C42.9521 99.1804 43.014 99.3416 43.014 99.539C43.014 99.7008 42.9674 99.8454 42.8743 99.9729C42.7823 100.1 42.6536 100.201 42.4881 100.274C42.3226 100.348 42.1302 100.385 41.9108 100.385C41.6227 100.385 41.3843 100.322 41.1955 100.197C41.0067 100.072 40.8872 99.8896 40.8369 99.6493L41.2488 99.5463C41.288 99.6983 41.3622 99.8123 41.4713 99.8883C41.5816 99.9643 41.7257 100.002 41.9034 100.002C42.1057 100.002 42.2662 99.9594 42.3852 99.8736C42.5053 99.7866 42.5654 99.6824 42.5654 99.561C42.5654 99.463 42.531 99.3808 42.4624 99.3146C42.3937 99.2472 42.2883 99.197 42.1461 99.1639L41.6754 99.0535C41.4167 98.9922 41.2267 98.8972 41.1054 98.7685C40.9852 98.6386 40.9252 98.4762 40.9252 98.2813C40.9252 98.1219 40.9699 97.9809 41.0594 97.8583C41.1501 97.7358 41.2733 97.6395 41.429 97.5697C41.5859 97.4998 41.7636 97.4648 41.9622 97.4648C42.2417 97.4648 42.4612 97.5261 42.6205 97.6487C42.7811 97.7713 42.8951 97.9331 42.9625 98.1342Z" fill="white"/>
<path d="M39.132 100.385C38.8598 100.385 38.6251 100.325 38.4277 100.205C38.2316 100.083 38.0802 99.9141 37.9736 99.6971C37.8681 99.4789 37.8154 99.2252 37.8154 98.9359C37.8154 98.6466 37.8681 98.3916 37.9736 98.1709C38.0802 97.9491 38.2285 97.7762 38.4185 97.6524C38.6098 97.5274 38.8329 97.4648 39.0879 97.4648C39.235 97.4648 39.3802 97.4894 39.5236 97.5384C39.6671 97.5874 39.7976 97.6671 39.9153 97.7774C40.033 97.8865 40.1268 98.0312 40.1966 98.2114C40.2665 98.3916 40.3014 98.6135 40.3014 98.877V99.0609H38.1243V98.6858H39.8601C39.8601 98.5264 39.8283 98.3842 39.7645 98.2592C39.702 98.1342 39.6125 98.0355 39.4961 97.9631C39.3808 97.8908 39.2448 97.8547 39.0879 97.8547C38.915 97.8547 38.7655 97.8976 38.6392 97.9834C38.5142 98.068 38.4179 98.1783 38.3505 98.3144C38.2831 98.4504 38.2494 98.5963 38.2494 98.752V99.002C38.2494 99.2153 38.2862 99.3962 38.3597 99.5445C38.4345 99.6916 38.5381 99.8037 38.6705 99.881C38.8028 99.957 38.9567 99.995 39.132 99.995C39.246 99.995 39.349 99.979 39.4409 99.9472C39.5341 99.9141 39.6143 99.865 39.6818 99.8001C39.7492 99.7339 39.8013 99.6517 39.8381 99.5537L40.2573 99.6714C40.2132 99.8136 40.139 99.9386 40.0348 100.046C39.9306 100.153 39.8019 100.236 39.6487 100.297C39.4954 100.355 39.3232 100.385 39.132 100.385Z" fill="white"/>
<path d="M35.3529 98.6269V100.326H34.9189V97.5016H35.3382V97.9429H35.375C35.4412 97.7995 35.5417 97.6843 35.6765 97.5972C35.8114 97.509 35.9854 97.4648 36.1987 97.4648C36.39 97.4648 36.5573 97.5041 36.7007 97.5825C36.8441 97.6598 36.9557 97.7774 37.0354 97.9356C37.115 98.0925 37.1549 98.2911 37.1549 98.5313V100.326H36.7209V98.5607C36.7209 98.3389 36.6633 98.166 36.5481 98.0422C36.4329 97.9172 36.2747 97.8547 36.0737 97.8547C35.9352 97.8547 35.8114 97.8847 35.7023 97.9448C35.5944 98.0048 35.5092 98.0925 35.4467 98.2077C35.3842 98.3229 35.3529 98.4627 35.3529 98.6269Z" fill="white"/>
<path d="M33.6903 100.327V97.5025H34.1243V100.327H33.6903ZM33.911 97.0318C33.8264 97.0318 33.7534 97.003 33.6921 96.9453C33.6321 96.8877 33.6021 96.8185 33.6021 96.7376C33.6021 96.6567 33.6321 96.5874 33.6921 96.5298C33.7534 96.4722 33.8264 96.4434 33.911 96.4434C33.9955 96.4434 34.0679 96.4722 34.1279 96.5298C34.1892 96.5874 34.2199 96.6567 34.2199 96.7376C34.2199 96.8185 34.1892 96.8877 34.1279 96.9453C34.0679 97.003 33.9955 97.0318 33.911 97.0318Z" fill="white"/>
<path d="M32.9855 98.1342L32.5957 98.2445C32.5711 98.1795 32.535 98.1164 32.4872 98.0551C32.4406 97.9926 32.3768 97.9411 32.2959 97.9006C32.215 97.8602 32.1114 97.84 31.9852 97.84C31.8123 97.84 31.6683 97.8798 31.5531 97.9595C31.4391 98.0379 31.3821 98.1378 31.3821 98.2592C31.3821 98.3671 31.4213 98.4523 31.4998 98.5148C31.5782 98.5773 31.7008 98.6294 31.8675 98.6711L32.2867 98.774C32.5393 98.8353 32.7274 98.9291 32.8512 99.0554C32.9751 99.1804 33.037 99.3416 33.037 99.539C33.037 99.7008 32.9904 99.8454 32.8972 99.9729C32.8053 100.1 32.6766 100.201 32.5111 100.274C32.3456 100.348 32.1531 100.385 31.9337 100.385C31.6456 100.385 31.4072 100.322 31.2184 100.197C31.0296 100.072 30.9101 99.8896 30.8599 99.6493L31.2717 99.5463C31.311 99.6983 31.3851 99.8123 31.4942 99.8883C31.6046 99.9643 31.7486 100.002 31.9263 100.002C32.1286 100.002 32.2892 99.9594 32.4081 99.8736C32.5282 99.7866 32.5883 99.6824 32.5883 99.561C32.5883 99.463 32.554 99.3808 32.4853 99.3146C32.4167 99.2472 32.3113 99.197 32.1691 99.1639L31.6983 99.0535C31.4397 98.9922 31.2497 98.8972 31.1283 98.7685C31.0082 98.6386 30.9481 98.4762 30.9481 98.2813C30.9481 98.1219 30.9929 97.9809 31.0824 97.8583C31.1731 97.7358 31.2963 97.6395 31.4519 97.5697C31.6089 97.4998 31.7866 97.4648 31.9852 97.4648C32.2647 97.4648 32.4841 97.5261 32.6435 97.6487C32.804 97.7713 32.918 97.9331 32.9855 98.1342Z" fill="white"/>
<path d="M29.7565 99.1715V97.502H30.1904V100.326H29.7565V99.8482H29.7271C29.6609 99.9916 29.5579 100.114 29.4182 100.214C29.2784 100.313 29.1019 100.363 28.8886 100.363C28.7121 100.363 28.5552 100.324 28.4179 100.247C28.2806 100.169 28.1727 100.051 28.0942 99.8942C28.0158 99.736 27.9766 99.5368 27.9766 99.2966V97.502H28.4105V99.2672C28.4105 99.4731 28.4681 99.6374 28.5834 99.76C28.6998 99.8825 28.8481 99.9438 29.0283 99.9438C29.1362 99.9438 29.2459 99.9162 29.3575 99.8611C29.4702 99.8059 29.5646 99.7213 29.6406 99.6073C29.7179 99.4933 29.7565 99.3481 29.7565 99.1715Z" fill="white"/>
<path d="M24.668 100.326V96.5605H25.9845C26.2469 96.5605 26.4632 96.6059 26.6336 96.6966C26.804 96.7861 26.9309 96.9068 27.0142 97.0589C27.0976 97.2096 27.1393 97.377 27.1393 97.5608C27.1393 97.7226 27.1105 97.8563 27.0528 97.9617C26.9965 98.0671 26.9217 98.1505 26.8285 98.2118C26.7366 98.273 26.6367 98.3184 26.5288 98.3478V98.3846C26.644 98.392 26.7599 98.4324 26.8763 98.506C26.9928 98.5795 27.0902 98.6849 27.1687 98.8222C27.2471 98.9595 27.2864 99.1275 27.2864 99.326C27.2864 99.5148 27.2435 99.6846 27.1577 99.8354C27.0718 99.9862 26.9364 100.106 26.7513 100.194C26.5662 100.282 26.3253 100.326 26.0287 100.326H24.668ZM25.124 99.9218H26.0287C26.3265 99.9218 26.538 99.8642 26.663 99.749C26.7893 99.6325 26.8524 99.4915 26.8524 99.326C26.8524 99.1986 26.8199 99.0809 26.755 98.973C26.69 98.8639 26.5974 98.7769 26.4773 98.7119C26.3572 98.6457 26.215 98.6126 26.0507 98.6126H25.124V99.9218ZM25.124 98.2154H25.9698C26.1071 98.2154 26.2309 98.1885 26.3412 98.1345C26.4528 98.0806 26.5411 98.0046 26.606 97.9065C26.6722 97.8085 26.7053 97.6932 26.7053 97.5608C26.7053 97.3953 26.6477 97.255 26.5325 97.1398C26.4172 97.0233 26.2346 96.9651 25.9845 96.9651H25.124V98.2154Z" fill="white"/>
<path d="M22.3583 96.5605V100.326H21.9243V96.5605H22.3583Z" fill="white"/>
<path d="M21.1293 96.5605V100.326H20.6953V96.5605H21.1293Z" fill="white"/>
<path d="M18.6085 100.392C18.4296 100.392 18.2671 100.358 18.1213 100.291C17.9754 100.222 17.8595 100.124 17.7737 99.995C17.6879 99.865 17.645 99.7081 17.645 99.5243C17.645 99.3624 17.6769 99.2313 17.7406 99.1308C17.8044 99.029 17.8896 98.9493 17.9962 98.8917C18.1029 98.8341 18.2206 98.7912 18.3493 98.763C18.4792 98.7336 18.6098 98.7103 18.7409 98.6931C18.9125 98.6711 19.0517 98.6545 19.1583 98.6435C19.2662 98.6312 19.3446 98.611 19.3937 98.5828C19.4439 98.5546 19.4691 98.5056 19.4691 98.4357V98.421C19.4691 98.2396 19.4194 98.0986 19.3201 97.9981C19.2221 97.8976 19.0731 97.8473 18.8733 97.8473C18.6661 97.8473 18.5037 97.8927 18.386 97.9834C18.2684 98.0741 18.1856 98.1709 18.1378 98.2739L17.7259 98.1268C17.7995 97.9552 17.8975 97.8216 18.0201 97.7259C18.1439 97.6291 18.2788 97.5617 18.4247 97.5237C18.5718 97.4845 18.7164 97.4648 18.8586 97.4648C18.9493 97.4648 19.0535 97.4759 19.1712 97.4979C19.2901 97.5188 19.4047 97.5623 19.515 97.6285C19.6266 97.6947 19.7191 97.7946 19.7927 97.9282C19.8662 98.0618 19.903 98.2408 19.903 98.4651V100.326H19.4691V99.9435H19.447C19.4176 100.005 19.3686 100.07 19.2999 100.14C19.2313 100.21 19.1399 100.27 19.0259 100.319C18.9119 100.368 18.7728 100.392 18.6085 100.392ZM18.6747 100.002C18.8463 100.002 18.991 99.9686 19.1087 99.9012C19.2276 99.8338 19.3171 99.7467 19.3771 99.6401C19.4384 99.5335 19.4691 99.4213 19.4691 99.3036V98.9064C19.4507 98.9285 19.4102 98.9487 19.3477 98.9671C19.2864 98.9843 19.2153 98.9996 19.1344 99.0131C19.0547 99.0253 18.9769 99.0364 18.9009 99.0462C18.8261 99.0548 18.7654 99.0621 18.7189 99.0682C18.6061 99.083 18.5007 99.1069 18.4026 99.14C18.3057 99.1718 18.2273 99.2202 18.1672 99.2852C18.1084 99.349 18.079 99.436 18.079 99.5463C18.079 99.6971 18.1347 99.8111 18.2463 99.8883C18.3591 99.9643 18.5019 100.002 18.6747 100.002Z" fill="white"/>
<path d="M13.2769 100.326V97.5016H13.6961V97.9429H13.7329C13.7917 97.7921 13.8867 97.6751 14.0179 97.5917C14.149 97.5071 14.3066 97.4648 14.4904 97.4648C14.6768 97.4648 14.8318 97.5071 14.9556 97.5917C15.0807 97.6751 15.1781 97.7921 15.248 97.9429H15.2774C15.3498 97.797 15.4582 97.6812 15.6029 97.5954C15.7475 97.5084 15.921 97.4648 16.1233 97.4648C16.3758 97.4648 16.5823 97.5439 16.7429 97.702C16.9035 97.859 16.9838 98.1035 16.9838 98.4357V100.326H16.5498V98.4357C16.5498 98.2273 16.4928 98.0784 16.3788 97.9889C16.2648 97.8994 16.1306 97.8547 15.9762 97.8547C15.7776 97.8547 15.6237 97.9147 15.5146 98.0349C15.4055 98.1538 15.351 98.3045 15.351 98.4872V100.326H14.9097V98.3916C14.9097 98.231 14.8576 98.1017 14.7534 98.0036C14.6492 97.9043 14.515 97.8547 14.3507 97.8547C14.2379 97.8547 14.1325 97.8847 14.0344 97.9448C13.9376 98.0048 13.8591 98.0882 13.7991 98.1948C13.7402 98.3003 13.7108 98.4222 13.7108 98.5607V100.326H13.2769Z" fill="white"/>
<path d="M12.0933 97.5007C12.0712 97.3144 11.9817 97.1698 11.8248 97.0668C11.6679 96.9638 11.4755 96.9123 11.2475 96.9123C11.0807 96.9123 10.9349 96.9393 10.8098 96.9932C10.686 97.0472 10.5892 97.1213 10.5193 97.2157C10.4507 97.3101 10.4163 97.4174 10.4163 97.5375C10.4163 97.638 10.4402 97.7245 10.4881 97.7968C10.5371 97.8679 10.5996 97.9273 10.6756 97.9751C10.7516 98.0217 10.8313 98.0603 10.9146 98.091C10.998 98.1204 11.0746 98.1443 11.1445 98.1627L11.527 98.2657C11.625 98.2914 11.7341 98.327 11.8543 98.3723C11.9756 98.4177 12.0915 98.4796 12.2018 98.558C12.3133 98.6353 12.4053 98.7346 12.4776 98.8559C12.5499 98.9773 12.5861 99.1262 12.5861 99.3027C12.5861 99.5062 12.5328 99.6901 12.4261 99.8544C12.3207 100.019 12.1662 100.149 11.9627 100.246C11.7605 100.343 11.5147 100.391 11.2254 100.391C10.9557 100.391 10.7222 100.348 10.5248 100.261C10.3287 100.174 10.1742 100.052 10.0615 99.8966C9.94991 99.741 9.88678 99.5602 9.87207 99.3542H10.3428C10.3551 99.4964 10.4029 99.6141 10.4862 99.7073C10.5708 99.7992 10.6774 99.8678 10.8062 99.9132C10.9361 99.9573 11.0758 99.9794 11.2254 99.9794C11.3995 99.9794 11.5558 99.9512 11.6943 99.8948C11.8328 99.8372 11.9425 99.7575 12.0234 99.6558C12.1043 99.5528 12.1448 99.4327 12.1448 99.2954C12.1448 99.1703 12.1098 99.0686 12.04 98.9901C11.9701 98.9117 11.8782 98.8479 11.7642 98.7989C11.6502 98.7499 11.527 98.707 11.3946 98.6702L10.9312 98.5378C10.637 98.4532 10.4041 98.3325 10.2325 98.1756C10.0608 98.0187 9.97504 97.8133 9.97504 97.5596C9.97504 97.3487 10.032 97.1649 10.146 97.008C10.2613 96.8498 10.4157 96.7272 10.6094 96.6402C10.8043 96.5519 11.0219 96.5078 11.2622 96.5078C11.5049 96.5078 11.7206 96.5513 11.9094 96.6384C12.0982 96.7242 12.2477 96.8419 12.3581 96.9914C12.4696 97.141 12.5285 97.3107 12.5346 97.5007H12.0933Z" fill="white"/>
<path d="M40.2465 95.2193C40.0369 95.2193 39.8567 95.1923 39.7059 95.1384C39.5552 95.0857 39.4295 95.0158 39.329 94.9288C39.2297 94.843 39.1506 94.751 39.0918 94.653L39.4375 94.4103C39.4767 94.4617 39.5264 94.5206 39.5864 94.5868C39.6465 94.6542 39.7286 94.7124 39.8328 94.7615C39.9382 94.8117 40.0762 94.8369 40.2465 94.8369C40.4746 94.8369 40.6627 94.7817 40.811 94.6714C40.9594 94.561 41.0335 94.3882 41.0335 94.1528V93.5791H40.9968C40.9649 93.6306 40.9195 93.6944 40.8607 93.7704C40.8031 93.8451 40.7197 93.912 40.6106 93.9708C40.5027 94.0284 40.3569 94.0572 40.173 94.0572C39.945 94.0572 39.7403 94.0033 39.5588 93.8954C39.3786 93.7875 39.2358 93.6306 39.1304 93.4247C39.0262 93.2187 38.9741 92.9687 38.9741 92.6745C38.9741 92.3852 39.025 92.1333 39.1267 91.9187C39.2285 91.703 39.3701 91.5363 39.5515 91.4186C39.7329 91.2997 39.9425 91.2402 40.1803 91.2402C40.3642 91.2402 40.5101 91.2709 40.618 91.3322C40.7271 91.3922 40.8104 91.4609 40.868 91.5381C40.9269 91.6141 40.9722 91.6766 41.0041 91.7257H41.0482V91.277H41.4675V94.1823C41.4675 94.425 41.4123 94.6223 41.302 94.7743C41.1929 94.9276 41.0458 95.0397 40.8607 95.1108C40.6768 95.1832 40.4721 95.2193 40.2465 95.2193ZM40.2318 93.6674C40.4059 93.6674 40.553 93.6276 40.6731 93.5479C40.7933 93.4682 40.8846 93.3536 40.9471 93.204C41.0096 93.0545 41.0409 92.8755 41.0409 92.6671C41.0409 92.4636 41.0102 92.284 40.949 92.1284C40.8877 91.9727 40.7969 91.8507 40.6768 91.7624C40.5567 91.6742 40.4084 91.6301 40.2318 91.6301C40.048 91.6301 39.8947 91.6766 39.7721 91.7698C39.6508 91.863 39.5595 91.988 39.4982 92.1449C39.4381 92.3018 39.4081 92.4759 39.4081 92.6671C39.4081 92.8632 39.4387 93.0367 39.5 93.1875C39.5625 93.337 39.6545 93.4547 39.7758 93.5405C39.8984 93.6251 40.0504 93.6674 40.2318 93.6674Z" fill="white"/>
<path d="M36.5111 92.4023V94.1013H36.0771V91.277H36.4964V91.7183H36.5332C36.5994 91.5749 36.6999 91.4597 36.8347 91.3726C36.9696 91.2844 37.1436 91.2402 37.3569 91.2402C37.5482 91.2402 37.7155 91.2795 37.8589 91.3579C38.0023 91.4351 38.1139 91.5528 38.1936 91.711C38.2732 91.8679 38.3131 92.0665 38.3131 92.3067V94.1013H37.8791V92.3361C37.8791 92.1143 37.8215 91.9414 37.7063 91.8176C37.5911 91.6926 37.4329 91.6301 37.2319 91.6301C37.0934 91.6301 36.9696 91.6601 36.8605 91.7202C36.7526 91.7802 36.6674 91.8679 36.6049 91.9831C36.5424 92.0983 36.5111 92.2381 36.5111 92.4023Z" fill="white"/>
<path d="M34.8485 94.1003V91.2759H35.2825V94.1003H34.8485ZM35.0692 90.8052C34.9846 90.8052 34.9116 90.7764 34.8504 90.7188C34.7903 90.6612 34.7603 90.5919 34.7603 90.511C34.7603 90.4301 34.7903 90.3608 34.8504 90.3032C34.9116 90.2456 34.9846 90.2168 35.0692 90.2168C35.1537 90.2168 35.2261 90.2456 35.2861 90.3032C35.3474 90.3608 35.3781 90.4301 35.3781 90.511C35.3781 90.5919 35.3474 90.6612 35.2861 90.7188C35.2261 90.7764 35.1537 90.8052 35.0692 90.8052Z" fill="white"/>
<path d="M30.3477 94.1013V91.277H30.7669V91.7183H30.8037C30.8625 91.5675 30.9575 91.4505 31.0887 91.3671C31.2198 91.2825 31.3774 91.2402 31.5612 91.2402C31.7476 91.2402 31.9026 91.2825 32.0264 91.3671C32.1515 91.4505 32.2489 91.5675 32.3188 91.7183H32.3482C32.4206 91.5724 32.529 91.4566 32.6737 91.3708C32.8183 91.2838 32.9918 91.2402 33.1941 91.2402C33.4466 91.2402 33.6531 91.3193 33.8137 91.4774C33.9743 91.6343 34.0546 91.8789 34.0546 92.2111V94.1013H33.6207V92.2111C33.6207 92.0027 33.5636 91.8538 33.4496 91.7643C33.3356 91.6748 33.2014 91.6301 33.047 91.6301C32.8484 91.6301 32.6945 91.6901 32.5854 91.8103C32.4763 91.9292 32.4218 92.0799 32.4218 92.2626V94.1013H31.9805V92.167C31.9805 92.0064 31.9284 91.8771 31.8242 91.779C31.72 91.6797 31.5858 91.6301 31.4215 91.6301C31.3087 91.6301 31.2033 91.6601 31.1052 91.7202C31.0084 91.7802 30.9299 91.8636 30.8699 91.9702C30.811 92.0756 30.7816 92.1976 30.7816 92.3361V94.1013H30.3477Z" fill="white"/>
<path d="M28.4214 94.1009V91.2766H28.8406V91.7031H28.87C28.9215 91.5634 29.0147 91.45 29.1495 91.363C29.2844 91.2759 29.4364 91.2324 29.6055 91.2324C29.6374 91.2324 29.6773 91.233 29.7251 91.2343C29.7729 91.2355 29.809 91.2373 29.8336 91.2398V91.6811C29.8188 91.6774 29.7851 91.6719 29.7324 91.6645C29.6809 91.656 29.6264 91.6517 29.5688 91.6517C29.4315 91.6517 29.3089 91.6805 29.201 91.7381C29.0944 91.7945 29.0098 91.8729 28.9473 91.9734C28.886 92.0727 28.8553 92.1861 28.8553 92.3136V94.1009H28.4214Z" fill="white"/>
<path d="M26.4795 94.1602C26.2245 94.1602 26.0008 94.0995 25.8083 93.9781C25.6171 93.8568 25.4676 93.687 25.3597 93.4688C25.253 93.2506 25.1997 92.9956 25.1997 92.7039C25.1997 92.4097 25.253 92.1529 25.3597 91.9334C25.4676 91.714 25.6171 91.5436 25.8083 91.4223C26.0008 91.3009 26.2245 91.2402 26.4795 91.2402C26.7345 91.2402 26.9576 91.3009 27.1488 91.4223C27.3413 91.5436 27.4908 91.714 27.5975 91.9334C27.7053 92.1529 27.7593 92.4097 27.7593 92.7039C27.7593 92.9956 27.7053 93.2506 27.5975 93.4688C27.4908 93.687 27.3413 93.8568 27.1488 93.9781C26.9576 94.0995 26.7345 94.1602 26.4795 94.1602ZM26.4795 93.7704C26.6732 93.7704 26.8325 93.7207 26.9576 93.6214C27.0826 93.5221 27.1751 93.3916 27.2352 93.2298C27.2953 93.068 27.3253 92.8927 27.3253 92.7039C27.3253 92.5151 27.2953 92.3392 27.2352 92.1762C27.1751 92.0131 27.0826 91.8813 26.9576 91.7808C26.8325 91.6803 26.6732 91.6301 26.4795 91.6301C26.2858 91.6301 26.1264 91.6803 26.0014 91.7808C25.8764 91.8813 25.7838 92.0131 25.7238 92.1762C25.6637 92.3392 25.6337 92.5151 25.6337 92.7039C25.6337 92.8927 25.6637 93.068 25.7238 93.2298C25.7838 93.3916 25.8764 93.5221 26.0014 93.6214C26.1264 93.7207 26.2858 93.7704 26.4795 93.7704Z" fill="white"/>
<path d="M24.8399 91.2762V91.6439H23.3174V91.2762H24.8399ZM23.7734 94.1005V90.8864C23.7734 90.7245 23.8114 90.5897 23.8874 90.4818C23.9634 90.374 24.0621 90.293 24.1834 90.2391C24.3048 90.1852 24.4329 90.1582 24.5677 90.1582C24.6744 90.1582 24.7614 90.1668 24.8288 90.1839C24.8963 90.2011 24.9465 90.217 24.9796 90.2318L24.8546 90.6069C24.8325 90.5995 24.8019 90.5903 24.7626 90.5793C24.7246 90.5682 24.6744 90.5627 24.6119 90.5627C24.4684 90.5627 24.3649 90.5989 24.3011 90.6712C24.2386 90.7435 24.2073 90.8496 24.2073 90.9893V94.1005H23.7734Z" fill="white"/>
<path d="M22.8776 91.9095L22.4877 92.0199C22.4632 91.9549 22.4271 91.8918 22.3793 91.8305C22.3327 91.768 22.2689 91.7165 22.188 91.676C22.1071 91.6356 22.0035 91.6153 21.8773 91.6153C21.7044 91.6153 21.5604 91.6552 21.4452 91.7349C21.3312 91.8133 21.2742 91.9132 21.2742 92.0346C21.2742 92.1425 21.3134 92.2276 21.3918 92.2902C21.4703 92.3527 21.5929 92.4048 21.7596 92.4465L22.1788 92.5494C22.4314 92.6107 22.6195 92.7045 22.7433 92.8308C22.8671 92.9558 22.929 93.117 22.929 93.3144C22.929 93.4762 22.8825 93.6208 22.7893 93.7483C22.6974 93.8758 22.5686 93.9763 22.4032 94.0499C22.2377 94.1234 22.0452 94.1602 21.8258 94.1602C21.5377 94.1602 21.2993 94.0977 21.1105 93.9726C20.9217 93.8476 20.8022 93.6649 20.752 93.4247L21.1638 93.3217C21.2031 93.4737 21.2772 93.5877 21.3863 93.6637C21.4967 93.7397 21.6407 93.7777 21.8184 93.7777C22.0207 93.7777 22.1813 93.7348 22.3002 93.649C22.4203 93.562 22.4804 93.4578 22.4804 93.3364C22.4804 93.2384 22.4461 93.1562 22.3774 93.09C22.3088 93.0226 22.2033 92.9723 22.0612 92.9392L21.5904 92.8289C21.3318 92.7676 21.1418 92.6726 21.0204 92.5439C20.9003 92.414 20.8402 92.2516 20.8402 92.0566C20.8402 91.8973 20.885 91.7563 20.9744 91.6337C21.0652 91.5111 21.1884 91.4149 21.344 91.345C21.5009 91.2752 21.6787 91.2402 21.8773 91.2402C22.1568 91.2402 22.3762 91.3015 22.5356 91.4241C22.6961 91.5467 22.8101 91.7085 22.8776 91.9095Z" fill="white"/>
<path d="M18.2821 92.4023V94.1013H17.8481V91.277H18.2674V91.7183H18.3042C18.3704 91.5749 18.4709 91.4597 18.6057 91.3726C18.7406 91.2844 18.9146 91.2402 19.1279 91.2402C19.3192 91.2402 19.4865 91.2795 19.6299 91.3579C19.7733 91.4351 19.8849 91.5528 19.9646 91.711C20.0442 91.8679 20.0841 92.0665 20.0841 92.3067V94.1013H19.6501V92.3361C19.6501 92.1143 19.5925 91.9414 19.4773 91.8176C19.3621 91.6926 19.2039 91.6301 19.0029 91.6301C18.8644 91.6301 18.7406 91.6601 18.6315 91.7202C18.5236 91.7802 18.4384 91.8679 18.3759 91.9831C18.3134 92.0983 18.2821 92.2381 18.2821 92.4023Z" fill="white"/>
<path d="M15.7619 94.1675C15.5829 94.1675 15.4205 94.1338 15.2746 94.0664C15.1287 93.9978 15.0129 93.8991 14.9271 93.7704C14.8412 93.6404 14.7983 93.4835 14.7983 93.2996C14.7983 93.1378 14.8302 93.0067 14.894 92.9062C14.9577 92.8044 15.0429 92.7247 15.1495 92.6671C15.2562 92.6095 15.3739 92.5666 15.5026 92.5384C15.6325 92.509 15.7631 92.4857 15.8942 92.4685C16.0659 92.4465 16.205 92.4299 16.3116 92.4189C16.4195 92.4066 16.498 92.3864 16.547 92.3582C16.5973 92.33 16.6224 92.281 16.6224 92.2111V92.1964C16.6224 92.015 16.5727 91.874 16.4735 91.7735C16.3754 91.673 16.2264 91.6227 16.0266 91.6227C15.8195 91.6227 15.657 91.6681 15.5394 91.7588C15.4217 91.8495 15.3389 91.9463 15.2911 92.0493L14.8792 91.9022C14.9528 91.7306 15.0509 91.597 15.1734 91.5013C15.2973 91.4045 15.4321 91.3371 15.578 91.2991C15.7251 91.2598 15.8697 91.2402 16.0119 91.2402C16.1026 91.2402 16.2068 91.2513 16.3245 91.2733C16.4434 91.2942 16.558 91.3377 16.6684 91.4039C16.7799 91.4701 16.8725 91.57 16.946 91.7036C17.0196 91.8372 17.0563 92.0162 17.0563 92.2405V94.1013H16.6224V93.7189H16.6003C16.5709 93.7802 16.5219 93.8458 16.4532 93.9156C16.3846 93.9855 16.2933 94.045 16.1792 94.094C16.0652 94.143 15.9261 94.1675 15.7619 94.1675ZM15.828 93.7777C15.9997 93.7777 16.1443 93.744 16.262 93.6766C16.3809 93.6092 16.4704 93.5221 16.5305 93.4155C16.5917 93.3088 16.6224 93.1967 16.6224 93.079V92.6818C16.604 92.7039 16.5636 92.7241 16.501 92.7425C16.4397 92.7597 16.3686 92.775 16.2877 92.7885C16.2081 92.8007 16.1302 92.8118 16.0542 92.8216C15.9794 92.8301 15.9188 92.8375 15.8722 92.8436C15.7594 92.8583 15.654 92.8822 15.5559 92.9153C15.4591 92.9472 15.3806 92.9956 15.3205 93.0606C15.2617 93.1244 15.2323 93.2114 15.2323 93.3217C15.2323 93.4725 15.2881 93.5865 15.3996 93.6637C15.5124 93.7397 15.6552 93.7777 15.828 93.7777Z" fill="white"/>
<path d="M13.0044 94.1009V91.2766H13.4236V91.7031H13.4531C13.5045 91.5634 13.5977 91.45 13.7325 91.363C13.8674 91.2759 14.0194 91.2324 14.1886 91.2324C14.2204 91.2324 14.2603 91.233 14.3081 91.2343C14.3559 91.2355 14.392 91.2373 14.4166 91.2398V91.6811C14.4019 91.6774 14.3681 91.6719 14.3154 91.6645C14.2639 91.656 14.2094 91.6517 14.1518 91.6517C14.0145 91.6517 13.8919 91.6805 13.784 91.7381C13.6774 91.7945 13.5928 91.8729 13.5303 91.9734C13.469 92.0727 13.4383 92.1861 13.4383 92.3136V94.1009H13.0044Z" fill="white"/>
<path d="M9.82764 90.7385V90.334H12.652V90.7385H11.4678V94.0998H11.0118V90.7385H9.82764Z" fill="white"/>
<path d="M-0.451886 42.6213V22.5736H-7.60693V17.3086H12.4407V22.5736H5.28565V42.6213H-0.451886Z" fill="url(#paint0_linear_9417_4453)"/>
<path d="M15.4592 42.6213V17.3086H20.7243V26.5224C22.0405 25.5437 23.5255 25.1049 25.078 25.1049C28.7906 25.1049 31.9293 27.6024 31.9293 32.2599V42.6213H26.6643V33.1712C26.6643 31.1462 25.6181 29.9649 23.8293 29.9649C22.0743 29.9649 20.7243 31.0449 20.7243 33.1712V42.6213H15.4592Z" fill="url(#paint1_linear_9417_4453)"/>
<path d="M35.5219 20.5486C35.5219 18.8274 36.8044 17.5448 38.5932 17.5448C40.3482 17.5448 41.6307 18.8274 41.6307 20.5486C41.6307 22.3036 40.3482 23.5861 38.5594 23.5861C36.8044 23.5861 35.5219 22.3036 35.5219 20.5486ZM35.9269 42.6213V25.5436H41.1919V42.6213H35.9269Z" fill="url(#paint2_linear_9417_4453)"/>
<path d="M45.6169 42.6213V25.5436H50.1394L50.5107 26.8262C51.9957 25.6112 53.6157 25.1049 55.2357 25.1049C58.9482 25.1049 62.087 27.6024 62.087 32.2599V42.6213H56.822V33.1712C56.822 31.1462 55.7757 29.9649 53.987 29.9649C52.232 29.9649 50.8819 31.0449 50.8819 33.1712V42.6213H45.6169Z" fill="url(#paint3_linear_9417_4453)"/>
<path d="M77.4246 25.5436H83.6347L77.4584 33.1375L83.7022 42.6213H77.6609L73.1046 35.635H71.3496V42.6213H66.0846V17.3086H71.3496V30.7412H73.3409L77.4246 25.5436Z" fill="url(#paint4_linear_9417_4453)"/>
<path d="M-5.78442 73.0305V47.7178H4.4419C8.93068 47.7178 12.0019 50.3166 12.0019 54.3329C12.0019 56.5941 10.9894 58.3829 8.93068 59.6317C11.7657 60.7792 13.1157 63.0067 13.1157 65.7742C13.1157 70.128 9.77443 73.0305 4.94815 73.0305H-5.78442ZM3.69939 52.4429H-0.181884V57.6742H3.69939C5.3869 57.6742 6.46691 56.6279 6.46691 55.0416C6.46691 53.4216 5.3869 52.4429 3.69939 52.4429ZM4.3744 62.4667H-0.181884V68.2717H4.3744C6.29816 68.2717 7.41192 67.158 7.41192 65.403C7.41192 63.5804 6.19691 62.4667 4.3744 62.4667Z" fill="url(#paint5_linear_9417_4453)"/>
<path d="M16.01 50.9579C16.01 49.2366 17.2926 47.9541 19.0813 47.9541C20.8363 47.9541 22.1188 49.2366 22.1188 50.9579C22.1188 52.7129 20.8363 53.9954 19.0476 53.9954C17.2926 53.9954 16.01 52.7129 16.01 50.9579ZM16.4151 73.0305V55.9529H21.6801V73.0305H16.4151Z" fill="url(#paint6_linear_9417_4453)"/>
<path d="M24.8225 64.2217C24.8225 59.1929 28.3326 55.5141 33.0239 55.5141C34.8801 55.5141 36.5339 56.2229 37.8164 57.4379L38.2551 55.9529H42.7777V72.693C42.7777 77.2155 39.7739 80.8606 34.0364 80.8606C28.9738 80.8606 26.1388 78.3293 25.3626 75.0555L30.7288 73.908C31.1676 75.4943 32.4501 76.1018 33.9689 76.1018C36.3314 76.1018 37.5126 74.853 37.5126 72.9968V71.1742C36.2976 72.2205 34.7451 72.828 33.0239 72.828C28.3326 72.828 24.8225 69.183 24.8225 64.2217ZM30.3238 64.2217C30.3238 66.5842 31.7413 68.1367 33.9014 68.1367C36.0614 68.1367 37.5126 66.5842 37.5126 64.2217C37.5126 61.8929 36.0614 60.3742 33.9014 60.3742C31.7413 60.3742 30.3238 61.8929 30.3238 64.2217Z" fill="url(#paint7_linear_9417_4453)"/>
<path d="M67.9124 54.7379H69.1611L74.6962 65.943L78.4087 47.7178H84.045L78.8137 73.0305H72.7724L68.4861 64.4242L64.4361 73.0305H58.3948L53.1298 47.7178H58.8335L62.6136 65.943L67.9124 54.7379Z" fill="url(#paint8_linear_9417_4453)"/>
<path d="M86.5427 50.9579C86.5427 49.2366 87.8253 47.9541 89.614 47.9541C91.369 47.9541 92.6515 49.2366 92.6515 50.9579C92.6515 52.7129 91.369 53.9954 89.5803 53.9954C87.8253 53.9954 86.5427 52.7129 86.5427 50.9579ZM86.9477 73.0305V55.9529H92.2128V73.0305H86.9477Z" fill="url(#paint9_linear_9417_4453)"/>
<path d="M94.6127 58.6867L101.532 52.2066H103.219V55.9529H108.99V60.5429H103.219V66.3142C103.219 67.9342 104.198 68.6092 105.649 68.6092C106.324 68.6092 106.932 68.4067 107.607 68.1367L108.754 72.3893C107.404 73.0643 105.885 73.4355 104.333 73.4355C100.35 73.4355 97.954 71.1405 97.954 67.5967V60.5429H94.6127V58.6867Z" fill="url(#paint10_linear_9417_4453)"/>
<path d="M111.568 73.0305V47.7178H116.833V56.9316C118.15 55.9529 119.635 55.5141 121.187 55.5141C124.9 55.5141 128.038 58.0117 128.038 62.6692V73.0305H122.773V63.5804C122.773 61.5554 121.727 60.3742 119.938 60.3742C118.183 60.3742 116.833 61.4542 116.833 63.5804V73.0305H111.568Z" fill="url(#paint11_linear_9417_4453)"/>
<path d="M48.8682 131.455L67.8996 81.0181H80.2061L99.1702 131.455H87.2672L82.6943 118.61H64.8061L60.2332 131.455H48.8682ZM68.5721 108.187H78.9956L73.8175 93.4591L68.5721 108.187Z" fill="url(#paint12_linear_9417_4453)"/>
<path d="M105.527 131.455V81.0181H116.96V131.455H105.527Z" fill="url(#paint13_linear_9417_4453)"/>
</g>
<defs>
<linearGradient id="paint0_linear_9417_4453" x1="-10.2955" y1="17.2403" x2="134.132" y2="74.383" gradientUnits="userSpaceOnUse">
<stop offset="0.130208" stop-color="#FF7AD1"/>
<stop offset="0.875" stop-color="#FFFF00"/>
</linearGradient>
<linearGradient id="paint1_linear_9417_4453" x1="-10.2955" y1="17.2403" x2="134.132" y2="74.383" gradientUnits="userSpaceOnUse">
<stop offset="0.130208" stop-color="#FF7AD1"/>
<stop offset="0.875" stop-color="#FFFF00"/>
</linearGradient>
<linearGradient id="paint2_linear_9417_4453" x1="-10.2955" y1="17.2403" x2="134.132" y2="74.383" gradientUnits="userSpaceOnUse">
<stop offset="0.130208" stop-color="#FF7AD1"/>
<stop offset="0.875" stop-color="#FFFF00"/>
</linearGradient>
<linearGradient id="paint3_linear_9417_4453" x1="-10.2955" y1="17.2403" x2="134.132" y2="74.383" gradientUnits="userSpaceOnUse">
<stop offset="0.130208" stop-color="#FF7AD1"/>
<stop offset="0.875" stop-color="#FFFF00"/>
</linearGradient>
<linearGradient id="paint4_linear_9417_4453" x1="-10.2955" y1="17.2403" x2="134.132" y2="74.383" gradientUnits="userSpaceOnUse">
<stop offset="0.130208" stop-color="#FF7AD1"/>
<stop offset="0.875" stop-color="#FFFF00"/>
</linearGradient>
<linearGradient id="paint5_linear_9417_4453" x1="-10.2955" y1="17.2403" x2="134.132" y2="74.383" gradientUnits="userSpaceOnUse">
<stop offset="0.130208" stop-color="#FF7AD1"/>
<stop offset="0.875" stop-color="#FFFF00"/>
</linearGradient>
<linearGradient id="paint6_linear_9417_4453" x1="-10.2955" y1="17.2403" x2="134.132" y2="74.383" gradientUnits="userSpaceOnUse">
<stop offset="0.130208" stop-color="#FF7AD1"/>
<stop offset="0.875" stop-color="#FFFF00"/>
</linearGradient>
<linearGradient id="paint7_linear_9417_4453" x1="-10.2955" y1="17.2403" x2="134.132" y2="74.383" gradientUnits="userSpaceOnUse">
<stop offset="0.130208" stop-color="#FF7AD1"/>
<stop offset="0.875" stop-color="#FFFF00"/>
</linearGradient>
<linearGradient id="paint8_linear_9417_4453" x1="-10.2955" y1="17.2403" x2="134.132" y2="74.383" gradientUnits="userSpaceOnUse">
<stop offset="0.130208" stop-color="#FF7AD1"/>
<stop offset="0.875" stop-color="#FFFF00"/>
</linearGradient>
<linearGradient id="paint9_linear_9417_4453" x1="-10.2955" y1="17.2403" x2="134.132" y2="74.383" gradientUnits="userSpaceOnUse">
<stop offset="0.130208" stop-color="#FF7AD1"/>
<stop offset="0.875" stop-color="#FFFF00"/>
</linearGradient>
<linearGradient id="paint10_linear_9417_4453" x1="-10.2955" y1="17.2403" x2="134.132" y2="74.383" gradientUnits="userSpaceOnUse">
<stop offset="0.130208" stop-color="#FF7AD1"/>
<stop offset="0.875" stop-color="#FFFF00"/>
</linearGradient>
<linearGradient id="paint11_linear_9417_4453" x1="-10.2955" y1="17.2403" x2="134.132" y2="74.383" gradientUnits="userSpaceOnUse">
<stop offset="0.130208" stop-color="#FF7AD1"/>
<stop offset="0.875" stop-color="#FFFF00"/>
</linearGradient>
<linearGradient id="paint12_linear_9417_4453" x1="-10.2955" y1="17.2403" x2="134.132" y2="74.383" gradientUnits="userSpaceOnUse">
<stop offset="0.130208" stop-color="#FF7AD1"/>
<stop offset="0.875" stop-color="#FFFF00"/>
</linearGradient>
<linearGradient id="paint13_linear_9417_4453" x1="-10.2955" y1="17.2403" x2="134.132" y2="74.383" gradientUnits="userSpaceOnUse">
<stop offset="0.130208" stop-color="#FF7AD1"/>
<stop offset="0.875" stop-color="#FFFF00"/>
</linearGradient>
</defs>
</svg>
