<svg width="368" height="298" viewBox="0 0 368 298" fill="none" xmlns="http://www.w3.org/2000/svg">
<path d="M190.956 14.2665V5.34663C190.956 3.36833 189.241 1.79691 187.273 2.0214C113.514 10.3906 56.2243 73.0019 56.2243 148.998H47.3008C45.3225 148.998 43.7476 150.713 43.9756 152.681C52.3483 226.436 114.956 283.733 190.956 283.733V292.653C190.956 294.632 192.671 296.203 194.639 295.979C268.397 287.606 325.688 224.998 325.688 148.995H334.611C336.589 148.995 338.164 147.283 337.94 145.315C329.571 71.5602 266.959 14.263 190.956 14.263" fill="#FF788F"/>
<path d="M106.338 256.553V241.867L211.377 248.293L210.024 293.408" stroke="black" stroke-width="1.2" stroke-linecap="round" stroke-linejoin="round"/>
<path d="M190.956 14.2665V5.34663C190.956 3.36833 189.241 1.79691 187.273 2.0214C113.514 10.3906 56.2243 73.0019 56.2243 148.998H47.3008C45.3225 148.998 43.7476 150.713 43.9756 152.681C52.3483 226.436 114.956 283.733 190.956 283.733V292.653C190.956 294.632 192.671 296.203 194.639 295.979C268.397 287.606 325.688 224.998 325.688 148.995H334.611C336.589 148.995 338.164 147.283 337.94 145.315C329.571 71.5602 266.959 14.263 190.956 14.263" stroke="white" stroke-width="2" stroke-linecap="round" stroke-linejoin="round"/>
<path d="M57.971 117.367C80.5531 117.367 98.8595 99.0604 98.8595 76.4783C98.8595 53.8962 80.5531 35.5898 57.971 35.5898C35.3889 35.5898 17.0825 53.8962 17.0825 76.4783C17.0825 99.0604 35.3889 117.367 57.971 117.367Z" fill="#FF788F" stroke="black" stroke-width="1.2" stroke-linecap="round" stroke-linejoin="round"/>
<path d="M60.2581 115.707C82.8402 115.707 101.147 97.4003 101.147 74.8182C101.147 52.2361 82.8402 33.9297 60.2581 33.9297C37.676 33.9297 19.3696 52.2361 19.3696 74.8182C19.3696 97.4003 37.676 115.707 60.2581 115.707Z" fill="white" stroke="black" stroke-width="1.2" stroke-linecap="round" stroke-linejoin="round"/>
<path d="M60.2579 105.079C76.9702 105.079 90.5183 91.5313 90.5183 74.8189C90.5183 58.1066 76.9702 44.5586 60.2579 44.5586C43.5456 44.5586 29.9976 58.1066 29.9976 74.8189C29.9976 91.5313 43.5456 105.079 60.2579 105.079Z" fill="#FF788F"/>
<path d="M84.4043 78.6381C84.4043 78.6101 84.4043 78.5855 84.4043 78.561C84.4043 78.5329 84.4008 78.5084 84.3973 78.4838C84.3938 78.4593 84.3868 78.4347 84.3833 78.4101C84.3763 78.3821 84.3657 78.3575 84.3587 78.3295C84.3552 78.3154 84.3517 78.3049 84.3447 78.2909L74.3023 55.2247C74.3023 55.2247 74.2953 55.2142 74.2918 55.2072C74.2532 55.123 74.2006 55.0493 74.134 54.9827C74.127 54.9756 74.1164 54.9651 74.1094 54.9581C74.0533 54.909 73.9937 54.8599 73.9235 54.8283C73.9095 54.8213 73.892 54.8178 73.8779 54.8108C73.8709 54.8108 73.8674 54.8038 73.8639 54.8003C73.8499 54.7932 73.8323 54.7933 73.8183 54.7862C73.7937 54.7792 73.7692 54.7687 73.7411 54.7652C73.7166 54.7582 73.6885 54.7547 73.664 54.7512C73.6394 54.7512 73.6149 54.7441 73.5903 54.7441C73.5622 54.7441 73.5342 54.7441 73.5061 54.7441C73.4816 54.7441 73.4605 54.7476 73.4395 54.7512C73.4114 54.7547 73.3833 54.7617 73.3553 54.7722C73.3342 54.7792 73.3132 54.7862 73.2886 54.7932C73.2781 54.7968 73.2641 54.8003 73.2536 54.8038L36.5918 70.767C36.5918 70.767 36.5742 70.7775 36.5672 70.781C36.5392 70.7951 36.5146 70.8091 36.4866 70.8266C36.4655 70.8372 36.448 70.8512 36.4304 70.8652C36.4094 70.8828 36.3883 70.9003 36.3673 70.9213C36.3498 70.9389 36.3322 70.9529 36.3147 70.9705C36.2971 70.9915 36.2796 71.0125 36.2656 71.0336C36.2515 71.0546 36.2375 71.0757 36.2235 71.0967C36.2095 71.1178 36.1989 71.1423 36.1884 71.1634C36.1779 71.1879 36.1674 71.2125 36.1568 71.2405C36.1533 71.2511 36.1463 71.2581 36.1463 71.2686C36.1428 71.2826 36.1428 71.2967 36.1393 71.3107C36.1323 71.3388 36.1288 71.3668 36.1218 71.3949C36.1218 71.4194 36.1147 71.444 36.1147 71.4685C36.1147 71.4966 36.1147 71.5212 36.1147 71.5457C36.1147 71.5738 36.1183 71.5983 36.1218 71.6229C36.1253 71.6474 36.1323 71.672 36.1358 71.6965C36.1428 71.7246 36.1533 71.7491 36.1603 71.7772C36.1639 71.7912 36.1674 71.8018 36.1744 71.8158L46.2167 94.882C46.2167 94.882 46.2237 94.8925 46.2273 94.8995C46.2658 94.9837 46.3185 95.0609 46.3851 95.1275C46.3921 95.1345 46.4026 95.1416 46.4096 95.1521C46.4693 95.2047 46.5324 95.2538 46.6096 95.2889C46.6201 95.2924 46.6306 95.2959 46.6412 95.2994C46.6447 95.2994 46.6482 95.3064 46.6552 95.3099C46.6657 95.3134 46.6727 95.3099 46.6832 95.3134C46.7709 95.345 46.8586 95.3625 46.9463 95.3625H46.9533C47.0165 95.3625 47.0831 95.352 47.1463 95.3345C47.1638 95.331 47.1848 95.324 47.2024 95.3169C47.2234 95.3099 47.248 95.3064 47.269 95.2959L83.9308 79.3327C83.9834 79.3081 84.0325 79.28 84.0781 79.2485C84.0851 79.245 84.0886 79.2379 84.0957 79.2344C84.1518 79.1923 84.2009 79.1397 84.243 79.0871C84.25 79.0766 84.2605 79.0661 84.2675 79.0555C84.3096 78.9924 84.3447 78.9258 84.3657 78.8521C84.3657 78.8451 84.3728 78.8416 84.3763 78.8346C84.3798 78.8205 84.3798 78.8065 84.3833 78.7925C84.3903 78.7644 84.3938 78.7364 84.4008 78.7083C84.4008 78.6837 84.4078 78.6592 84.4078 78.6346L84.4043 78.6381ZM38.3246 72.7664L54.0247 77.4911L46.9709 92.6266L38.3246 72.7664ZM62.5097 76.2179C61.973 77.3087 60.7383 77.8454 59.5773 77.4946L39.2225 71.3668L71.8926 57.1399L62.5097 76.2144V76.2179ZM55.5716 77.9577L59.1143 79.024C59.5072 79.1432 59.9035 79.1994 60.2964 79.1994C61.8117 79.1994 63.2393 78.347 63.9408 76.9229L65.4 73.959L81.2966 78.7434L48.5633 92.9949L55.5716 77.9541V77.9577ZM66.1155 72.5068L73.5272 57.4415L82.1945 77.3473L66.1155 72.5068V72.5068Z" fill="black"/>
<path d="M329.318 51.4471L290.352 48.8164L260.937 74.5098L258.31 113.48L284.003 142.891L322.973 145.518L352.384 119.825L355.012 80.8586L329.318 51.4471Z" fill="white" stroke="black" stroke-width="1.2" stroke-linecap="round" stroke-linejoin="round"/>
<path d="M256.987 75.8673L260.937 74.5098L290.352 48.8164L286.399 50.1704L256.987 75.8673Z" fill="#FF788F" stroke="black" stroke-width="1.2" stroke-linecap="round" stroke-linejoin="round"/>
<path d="M254.356 114.834L258.31 113.48L284.003 142.892L280.05 144.246L254.356 114.834Z" fill="black" stroke="black" stroke-width="1.2" stroke-linecap="round" stroke-linejoin="round"/>
<path d="M284.003 142.891L280.05 144.245L319.02 146.875L322.973 145.518L284.003 142.891Z" fill="black" stroke="black" stroke-width="1.2" stroke-linecap="round" stroke-linejoin="round"/>
<path d="M256.987 75.8848L254.356 114.851L258.31 113.497L260.937 74.5273L256.987 75.8848Z" fill="#FF788F" stroke="black" stroke-width="1.2" stroke-linecap="round" stroke-linejoin="round"/>
<path d="M323.674 62.8322L294.413 60.8574L272.326 80.1529L270.351 109.417L289.647 131.505L318.911 133.479L340.998 114.184L342.973 84.9198L323.674 62.8322Z" fill="#FF788F"/>
<path d="M315.759 79.2727L313.46 112.943C313.202 116.714 315.658 118.988 318.416 119.176C320.967 119.35 323.895 117.756 324.173 113.675L326.455 80.2594C326.691 76.8078 324.288 74.4734 321.482 74.2818C318.676 74.0902 315.962 76.2994 315.759 79.2727Z" fill="white"/>
<path d="M300.562 95.4055L299.43 111.986C299.173 115.756 301.628 118.03 304.386 118.218C306.937 118.393 309.865 116.799 310.144 112.717L311.258 96.3922C311.494 92.9406 309.091 90.6062 306.285 90.4146C303.479 90.223 300.765 92.4322 300.562 95.4055V95.4055Z" fill="white"/>
<path d="M296.079 112.272C295.877 115.229 293.314 117.465 290.357 117.263C287.399 117.061 285.164 114.498 285.366 111.54C285.568 108.583 288.131 106.347 291.088 106.549C294.045 106.751 296.281 109.315 296.079 112.272Z" fill="white"/>
<path d="M144.897 94.609L145.953 101.291C145.953 101.291 153.154 103.29 158.447 98.5761C163.74 93.8618 167.595 85.1699 167.595 85.1699L144.897 94.6055V94.609Z" fill="black" stroke="black" stroke-width="1.2" stroke-linecap="round" stroke-linejoin="round"/>
<path d="M106.338 245.689C140.59 267.637 181.114 266.567 194.779 264.42C208.445 262.274 211.377 259.587 211.377 259.587L211.507 252.196L106.338 245.693V245.689Z" fill="black"/>
<path d="M94.587 180.834C94.9026 172.199 105.706 160.501 110.806 162.665C115.906 164.829 112.199 131.31 112.199 131.31L77.2312 119.826C77.2312 119.826 49.7489 145.993 50.3697 147.077C50.9906 148.161 54.393 163.77 54.393 163.77L94.5835 180.841L94.587 180.834Z" fill="white" stroke="black" stroke-width="1.2" stroke-linecap="round" stroke-linejoin="round"/>
<path d="M215.759 127.184C229.21 140.579 239.919 176.532 244.651 185.873C249.383 195.214 255.325 196.056 259.888 194.537C264.452 193.015 270.201 185.873 270.201 185.873L289.808 207.382C289.808 207.382 277.307 228.68 251.438 232.23C225.566 235.78 211.507 210.921 211.507 210.921L215.759 127.184V127.184Z" fill="white" stroke="black" stroke-width="1.2" stroke-linecap="round" stroke-linejoin="round"/>
<path d="M174.445 76.4675L176.09 98.9514L177.739 101.48L182.636 104.35C182.636 104.35 188.897 107.324 193.713 100.86C198.529 94.395 196.87 88.0006 196.87 88.0006C196.87 88.0006 192.825 95.7139 184.838 89.7158C179.181 85.4681 187.206 67.1688 187.206 67.1688L180.948 61.8652L174.449 76.464L174.445 76.4675Z" fill="black" stroke="black" stroke-width="1.2" stroke-linecap="round" stroke-linejoin="round"/>
<path d="M116.548 130.252C116.548 150.537 138.411 175.568 138.411 175.568C138.411 175.568 185.119 167.188 185.796 166.002C186.473 164.817 190.489 108.912 190.489 108.912L177.739 114.752L163.982 133.897H161.004L151.961 125.91L138.86 106.471L116.548 130.252V130.252Z" fill="white"/>
<path d="M144.396 91.3008C145.918 101.441 147.437 110.951 148.833 114.753Z" fill="#FF788F"/>
<path d="M144.396 91.3008C145.918 101.441 147.437 110.951 148.833 114.753" stroke="black" stroke-width="1.2" stroke-linecap="round" stroke-linejoin="round"/>
<path d="M174.442 74.8184C174.442 88.2561 175.203 99.919 177.739 103.09" stroke="black" stroke-width="1.2" stroke-linecap="round" stroke-linejoin="round"/>
<path d="M167.595 85.1743C167.595 85.1743 160.819 95.5218 152.453 95.7147C142.747 95.9357 137.675 90.4147 136.493 75.3705C135.311 60.3262 140.888 46.9727 140.888 46.9727" fill="#FF788F"/>
<path d="M143.161 49.2274C139.709 57.9474 138.24 78.3443 140.874 85.7384C143.157 92.1539 147.675 95.4545 149.559 95.5808C151.442 95.7071 142.617 97.1172 139.075 87.5483C135.535 77.9795 136.005 63.4965 138.089 56.2111L140.172 48.9258L143.161 49.2274V49.2274Z" fill="white"/>
<path d="M167.595 85.1743C167.595 85.1743 160.819 95.5218 152.453 95.7147C142.747 95.9357 137.675 90.4147 136.493 75.3705C135.311 60.3262 140.888 46.9727 140.888 46.9727" stroke="black" stroke-width="1.2" stroke-linecap="round" stroke-linejoin="round"/>
<path d="M161.316 65.4297C165.22 72.5256 158.587 75.2476 155.301 73.3534Z" fill="#FF788F"/>
<path d="M161.316 65.4297C165.22 72.5256 158.587 75.2476 155.301 73.3534" stroke="black" stroke-width="1.2" stroke-linecap="round" stroke-linejoin="round"/>
<path d="M153.235 61.7099C148.714 59.0897 146.728 59.1774 146.128 60.833C145.409 62.8149 147.567 65.1439 149.085 66.4944" fill="#FF788F"/>
<path d="M153.235 61.7099C148.714 59.0897 146.728 59.1774 146.128 60.833C145.409 62.8149 147.567 65.1439 149.085 66.4944" stroke="black" stroke-width="1.2" stroke-linecap="round" stroke-linejoin="round"/>
<path d="M158.261 166.004C165.648 158.905 170.387 154.899 177.739 139.009C185.091 123.12 189.585 108.412 189.585 108.412C189.585 108.412 197.852 113.109 204.618 117.911C209.803 121.59 215.762 127.189 215.762 127.189C215.762 127.189 214.001 240.264 214.506 247.616C215.015 254.968 188.122 264.432 141.348 258.599C120.228 255.964 103.704 243.305 103.704 243.305L104.349 149.213L109.705 117.911L134.28 106.266C138.79 129.644 145.451 150.353 158.261 166.008V166.004Z" fill="#FF788F"/>
<path d="M104.31 191.279C161.264 209.775 215.015 197.365 215.015 197.365L216.014 214.829C216.014 214.829 181.071 222.307 146.055 217.47C111.038 212.633 103.956 207.302 103.956 207.302L102.5 192.5L104.31 191.279Z" fill="white"/>
<path d="M103.517 218.687C166.153 242.115 214.222 226.274 214.222 226.274L214.418 242.778C214.418 242.778 179.38 250.158 144.36 244.977C109.344 239.796 103.163 233.591 103.163 233.591L103.514 218.684L103.517 218.687Z" fill="white"/>
<path d="M196.873 112.785C196.122 138.258 178.212 207.575 178.212 207.575L193.032 207.333C193.032 207.333 201.998 169.5 204.779 150.324C207.561 131.148 207.61 120.162 207.61 120.162L196.877 112.785H196.873Z" fill="white"/>
<path d="M126.499 113.315C126.882 160.517 138.503 201.216 138.503 201.216H125.766C125.766 201.216 113.844 157.048 114.167 133.045L114.489 109.039L126.503 113.318L126.499 113.315Z" fill="white"/>
<path d="M158.261 166.004C165.648 158.905 170.387 154.899 177.739 139.009C185.091 123.12 189.585 108.412 189.585 108.412C189.585 108.412 197.852 113.109 204.618 117.911C209.803 121.59 215.762 127.189 215.762 127.189C215.762 127.189 214.001 240.264 214.506 247.616C215.015 254.968 188.122 264.432 141.348 258.599C120.228 255.964 103.704 243.305 103.704 243.305L104.349 149.213L109.705 117.911L134.28 106.266C138.79 129.644 145.451 150.353 158.261 166.008V166.004Z" stroke="black" stroke-width="1.2" stroke-linecap="round" stroke-linejoin="round"/>
<path d="M176.627 100.863C176.838 119.32 161.004 133.898 161.004 133.898C161.004 133.898 174.007 135.42 183.744 124.87C194.408 113.319 192.387 110.053 192.387 110.053C187.448 107.349 180.714 103.101 176.624 100.863H176.627Z" fill="white" stroke="black" stroke-width="1.2" stroke-linecap="round" stroke-linejoin="round"/>
<path d="M161.004 133.897C161.004 133.897 154.603 127.187 150.418 117.394C146.381 107.941 146.058 101.922 146.058 101.922C141.26 103.416 135.419 105.391 131.466 107.555C131.466 107.555 133.725 120.853 140.951 126.36C148.177 131.867 161.004 133.897 161.004 133.897Z" fill="white" stroke="black" stroke-width="1.2" stroke-linecap="round" stroke-linejoin="round"/>
<path d="M158.261 166.004C153.652 170.448 148.244 174.338 148.244 174.338L152.47 259.735" stroke="black" stroke-width="1.2" stroke-linecap="round" stroke-linejoin="round"/>
<path d="M159.671 185.878C161.947 185.878 163.793 184.032 163.793 181.756C163.793 179.48 161.947 177.635 159.671 177.635C157.395 177.635 155.55 179.48 155.55 181.756C155.55 184.032 157.395 185.878 159.671 185.878Z" fill="black"/>
<path d="M166.308 141.793C167.666 141.793 168.767 140.692 168.767 139.334C168.767 137.976 167.666 136.875 166.308 136.875C164.95 136.875 163.849 137.976 163.849 139.334C163.849 140.692 164.95 141.793 166.308 141.793Z" fill="#FF788F"/>
<path d="M165.627 152.519C166.985 152.519 168.086 151.418 168.086 150.06C168.086 148.702 166.985 147.602 165.627 147.602C164.269 147.602 163.168 148.702 163.168 150.06C163.168 151.418 164.269 152.519 165.627 152.519Z" fill="#FF788F"/>
<path d="M265.637 188.621C272.737 205.693 290.485 210.765 290.485 210.765L310.43 179.883L309.416 156.673C309.416 156.673 295.894 150.928 290.654 155.828C285.413 160.732 265.637 188.621 265.637 188.621Z" fill="#FF788F" stroke="black" stroke-width="1.2" stroke-linecap="round" stroke-linejoin="round"/>
<path d="M271.919 179.883C274.087 193.015 292.635 203.675 295.448 203.079Z" fill="#FF788F"/>
<path d="M271.919 179.883C274.087 193.015 292.635 203.675 295.448 203.079" stroke="black" stroke-width="1.2" stroke-linecap="round" stroke-linejoin="round"/>
<path d="M305.722 127.881L301.841 127.62C299.359 127.452 297.212 129.328 297.044 131.81L291.984 206.812C291.817 209.293 293.693 211.441 296.174 211.608L300.056 211.87C302.537 212.038 304.685 210.162 304.852 207.68L309.913 132.678C310.08 130.196 308.204 128.049 305.722 127.881Z" fill="#FF788F" stroke="black" stroke-width="1.2" stroke-linecap="round" stroke-linejoin="round"/>
<path d="M284.592 162.947C289.65 156.855 295.217 149.783 298.598 147.735C301.98 145.686 301.471 152.281 298.598 158.195C295.726 164.109 294.396 171.12 294.396 171.12" fill="#FF788F"/>
<path d="M284.592 162.947C289.65 156.855 295.217 149.783 298.598 147.735C301.98 145.686 301.471 152.281 298.598 158.195C295.726 164.109 294.396 171.12 294.396 171.12" stroke="black" stroke-width="1.2" stroke-linecap="round" stroke-linejoin="round"/>
<path d="M68.0089 151.187L68.0065 151.19C66.5561 152.772 66.6631 155.23 68.2453 156.681L194.913 272.791C196.495 274.241 198.954 274.134 200.404 272.552L200.406 272.55C201.857 270.967 201.75 268.509 200.168 267.058L73.5 150.948C71.9177 149.498 69.4593 149.605 68.0089 151.187Z" fill="#FF788F" stroke="black" stroke-width="1.2" stroke-linecap="round" stroke-linejoin="round"/>
<path d="M303.214 137.659C304.466 137.659 305.48 136.644 305.48 135.393C305.48 134.141 304.466 133.127 303.214 133.127C301.963 133.127 300.948 134.141 300.948 135.393C300.948 136.644 301.963 137.659 303.214 137.659Z" fill="black" stroke="black" stroke-width="1.2" stroke-linecap="round" stroke-linejoin="round"/>
<path d="M76.0933 111.575L76.0903 111.576C74.273 112.719 73.7257 115.118 74.8679 116.935L166.306 262.418C167.448 264.235 169.848 264.782 171.665 263.64L171.668 263.638C173.485 262.496 174.032 260.097 172.89 258.28L81.4519 112.797C80.3097 110.98 77.9106 110.432 76.0933 111.575Z" fill="#FF788F" stroke="black" stroke-width="1.2" stroke-linecap="round" stroke-linejoin="round"/>
<path d="M136.38 102.97L87.3928 77.6451V72.5801L83.1872 75.4704L59.686 133.143L117.751 154.034L121.957 151.144L119.168 150.141L136.38 102.97Z" fill="#FF788F" stroke="black" stroke-width="1.2" stroke-linecap="round" stroke-linejoin="round"/>
<path d="M140.586 100.08L121.957 151.144L63.8955 130.253L87.3931 72.5801L140.586 100.08Z" fill="black" stroke="black" stroke-width="1.2" stroke-linecap="round" stroke-linejoin="round"/>
<path d="M118.747 147.729L118.743 147.731C116.812 148.668 116.007 150.993 116.944 152.924L176.74 276.125C177.678 278.056 180.003 278.861 181.934 277.924L181.937 277.922C183.868 276.985 184.674 274.66 183.736 272.729L123.94 149.529C123.003 147.598 120.678 146.792 118.747 147.729Z" fill="#FF788F" stroke="black" stroke-width="1.2" stroke-linecap="round" stroke-linejoin="round"/>
<path d="M130.66 104.087L117.966 141.861L74.2046 126.115L91.3815 83.7812L130.66 104.087Z" fill="#FF788F"/>
<path d="M122.424 230.586C122.838 232.768 123.736 233.294 124.479 233.262C125.226 233.227 126.496 230.744 126.496 230.744L122.424 230.586Z" fill="black" stroke="black" stroke-width="1.2" stroke-linecap="round" stroke-linejoin="round"/>
<path d="M50.37 169.406C46.2029 194.829 63.8042 216.79 87.1019 224.77C112.876 233.599 127.927 230.558 127.927 230.558C127.927 230.558 135.409 216.264 133.518 208.625C131.624 200.985 130.663 197.989 130.663 197.989C130.663 197.989 110.814 196.716 100.066 188.336C96.3551 185.443 94.5872 180.834 94.5872 180.834L74.7656 162.664L50.37 169.406Z" fill="white" stroke="black" stroke-width="1.2" stroke-linecap="round" stroke-linejoin="round"/>
<path d="M124.479 196.141C124.479 196.141 130.506 200.248 129.955 215.033C129.408 229.817 124.479 233.104 124.479 233.104C124.479 233.104 138.286 232.648 152.902 229.491C165.599 226.748 171.422 223.384 174.874 220.333C178.325 217.281 178.971 211.883 178.971 211.883L158.819 205.671C158.819 205.671 166.599 203.843 170.237 202.633C173.688 201.483 173.274 198.771 169.496 198.035C165.719 197.298 124.483 196.148 124.483 196.148L124.479 196.141Z" fill="#FF788F" stroke="black" stroke-width="1.2" stroke-linecap="round" stroke-linejoin="round"/>
<path d="M160.404 213.648C169.054 213.844 175.683 208.705 178.212 207.58C182.52 205.664 181.208 215.538 170.113 219.821C163.351 222.431 159.338 222.241 159.338 222.241" fill="#FF788F"/>
<path d="M160.404 213.648C169.054 213.844 175.683 208.705 178.212 207.58C182.52 205.664 181.208 215.538 170.113 219.821C163.351 222.431 159.338 222.241 159.338 222.241" stroke="black" stroke-width="1.2" stroke-linecap="round" stroke-linejoin="round"/>
<path d="M156.515 205.172C165.017 206.775 173.281 205.165 175.838 204.099C181.401 201.781 181.749 208.561 172.871 212.261C165.687 215.257 158.486 214.945 158.486 214.945" fill="#FF788F"/>
<path d="M156.515 205.172C165.017 206.775 173.281 205.165 175.838 204.099C181.401 201.781 181.749 208.561 172.871 212.261C165.687 215.257 158.486 214.945 158.486 214.945" stroke="black" stroke-width="1.2" stroke-linecap="round" stroke-linejoin="round"/>
<path d="M135.819 196.48C146.479 211.69 138.436 231.887 138.436 231.887" stroke="black" stroke-width="1.2" stroke-linecap="round" stroke-linejoin="round"/>
<path d="M153.593 214.184C154.459 225.79 152.2 229.635 152.2 229.635" stroke="black" stroke-width="1.2" stroke-linecap="round" stroke-linejoin="round"/>
<path d="M123.073 196.945C123.259 196.292 123.985 196.12 124.479 196.138C124.974 196.155 125.763 197.422 125.763 197.422L123.073 196.945Z" fill="black" stroke="black" stroke-width="1.2" stroke-linecap="round" stroke-linejoin="round"/>
<path d="M50.37 171.412C71.5612 171.412 88.74 154.233 88.74 133.042C88.74 111.851 71.5612 94.6719 50.37 94.6719C29.1788 94.6719 12 111.851 12 133.042C12 154.233 29.1788 171.412 50.37 171.412Z" fill="#FF788F" stroke="black" stroke-width="1.2" stroke-linecap="round" stroke-linejoin="round"/>
<path d="M52.1449 168.623C73.3361 168.623 90.5149 151.444 90.5149 130.253C90.5149 109.062 73.3361 91.8828 52.1449 91.8828C30.9537 91.8828 13.7749 109.062 13.7749 130.253C13.7749 151.444 30.9537 168.623 52.1449 168.623Z" fill="white" stroke="black" stroke-width="1.2" stroke-linecap="round" stroke-linejoin="round"/>
<path d="M52.1451 158.794C67.9082 158.794 80.6867 146.016 80.6867 130.253C80.6867 114.489 67.9082 101.711 52.1451 101.711C36.382 101.711 23.6035 114.489 23.6035 130.253C23.6035 146.016 36.382 158.794 52.1451 158.794Z" fill="#FF788F"/>
<path d="M91.9038 110.337L94.1171 128.942L97.73 127.195L97.1512 122.986L102.907 120.201L105.847 123.263L109.46 121.516L96.2463 108.236L91.9038 110.337ZM96.7338 119.941L95.7762 112.958L95.9025 112.898L100.782 117.981L96.7373 119.938L96.7338 119.941Z" fill="black"/>
<path d="M110.936 101.123L113.837 107.118L113.735 107.167C113.434 106.914 113.065 106.69 112.623 106.49C112.185 106.29 111.683 106.185 111.126 106.178C110.568 106.171 109.954 106.329 109.284 106.651C108.407 107.076 107.713 107.693 107.197 108.503C106.681 109.314 106.425 110.278 106.425 111.404C106.425 112.53 106.755 113.775 107.421 115.147C108.067 116.48 108.825 117.5 109.698 118.209C110.568 118.918 111.487 119.328 112.448 119.444C113.409 119.559 114.346 119.395 115.254 118.956C115.896 118.644 116.39 118.272 116.738 117.844C117.085 117.413 117.32 116.967 117.446 116.508C117.573 116.048 117.632 115.613 117.629 115.203L117.769 115.136L118.695 117.051L121.964 115.47L114.247 99.5273L110.94 101.13L110.936 101.123ZM116.429 113.06C116.485 113.684 116.397 114.235 116.169 114.708C115.942 115.182 115.559 115.547 115.022 115.806C114.479 116.069 113.949 116.143 113.434 116.024C112.918 115.904 112.434 115.627 111.981 115.189C111.529 114.75 111.136 114.186 110.799 113.488C110.463 112.79 110.266 112.144 110.207 111.527C110.143 110.91 110.228 110.362 110.459 109.885C110.691 109.408 111.076 109.04 111.624 108.773C112.157 108.514 112.683 108.437 113.192 108.542C113.704 108.647 114.184 108.914 114.637 109.342C115.089 109.77 115.486 110.341 115.829 111.05C116.173 111.758 116.373 112.428 116.429 113.056V113.06Z" fill="black"/>
<path d="M63.1799 137.518C60.1739 136.543 57.231 135.592 54.253 134.627C53.9934 138.223 53.7374 141.79 53.4813 145.34C51.71 145.199 49.9632 145.063 48.1743 144.922L48.9495 134.161C45.8768 134.624 42.8286 135.08 39.7139 135.546C44.2036 128.037 48.6583 120.583 53.1516 113.062C56.5014 121.232 59.8231 129.338 63.1799 137.518Z" fill="black"/>
<path d="M304.936 153.123C309.826 149.44 312.457 151.614 312.036 153.849C311.615 156.083 308.763 159.675 303.309 163.94C298.454 167.736 295.82 168.293 294.624 166.392C292.769 163.435 298.09 158.279 304.936 153.123Z" fill="#FF788F" stroke="black" stroke-width="1.2" stroke-linecap="round" stroke-linejoin="round"/>
<path d="M308.118 174.417C312.446 171.155 314.776 173.084 314.4 175.059C314.025 177.034 311.506 180.215 306.676 183.993C302.38 187.353 300.047 187.844 298.991 186.161C297.35 183.544 302.057 178.981 308.118 174.417V174.417Z" fill="#FF788F" stroke="black" stroke-width="1.2" stroke-linecap="round" stroke-linejoin="round"/>
<path d="M306.652 160.083C312.019 156.102 314.488 157.519 314.439 160.865C314.404 163.321 310.85 167.162 304.863 171.774C299.538 175.875 296.645 176.478 295.336 174.422C293.298 171.227 299.139 165.653 306.648 160.083H306.652Z" fill="#FF788F" stroke="black" stroke-width="1.2" stroke-linecap="round" stroke-linejoin="round"/>
<path d="M307.985 167.491C313.243 164.246 315.407 165.747 315.098 168.827C314.87 171.086 311.296 174.344 305.417 178.119C300.191 181.479 297.476 181.805 296.434 179.806C294.81 176.702 300.629 172.029 307.985 167.487V167.491Z" fill="#FF788F" stroke="black" stroke-width="1.2" stroke-linecap="round" stroke-linejoin="round"/>
<path d="M301.608 187.102C305.294 201.613 303.302 211.276 300.896 211.518C298.489 211.76 300.847 212.427 303.46 210.638C305.642 209.143 306.676 183.99 306.676 183.99L302.534 186.712L301.608 187.102Z" fill="black"/>
<path d="M309.128 144.357C307.381 151.66 303.214 154.452 303.214 154.452L308.672 151.148L309.132 144.361L309.128 144.357Z" fill="black"/>
<path d="M148.913 234.721C152.884 235.514 158.85 239.312 158.85 239.312L154.154 229.635L146.612 231.062L148.913 234.721Z" fill="black"/>
<path d="M155.837 233.1C161.962 232.77 166.985 238.26 166.985 238.26L161.614 227.193L153.968 229.249L155.837 233.1V233.1Z" fill="black"/>
<path d="M176.333 255.771C175.028 252.671 173.965 243.053 173.965 243.053L166.988 236.658L166.68 238.184L175.484 255.775H176.333V255.771Z" fill="black"/>
<path d="M103.7 189.189C110.48 193.788 117.99 191.739 117.99 191.739L123.49 196.78L112.382 194.433L106.871 192.328L103.704 189.186L103.7 189.189Z" fill="black"/>
<path d="M120.291 189.189C125.759 194.131 131.414 192.269 131.414 192.269L133.845 196.138L124.416 196.478L120.291 189.186V189.189Z" fill="black"/>
<path d="M136.528 193.492C140.888 196.028 145.518 194.021 145.518 194.021L146.788 196.638L137.892 196.48L136.528 193.488V193.492Z" fill="black"/>
<path d="M97.0389 152.197C104.545 152.867 109.253 157.017 109.253 157.017L104.349 149.212L92.479 144.943L97.0389 152.201V152.197Z" fill="black"/>
<path d="M77.6103 165.271C79.2764 164.072 86.0006 162.412 87.1406 163.458C88.2805 164.503 80.006 157.414 80.006 157.414L74.7656 162.658L77.6103 165.268V165.271Z" fill="black"/>
<path d="M161.004 133.898L159.479 164.839" stroke="black" stroke-width="1.2" stroke-linecap="round" stroke-linejoin="round"/>
<path d="M108.235 150.608C113.36 151.123 117.79 148.395 117.79 148.395C117.79 148.395 115.601 150.404 116.678 152.218L117.755 154.031L108.239 150.608H108.235Z" fill="black"/>
<path d="M169.833 53.9195C172.278 56.0487 174.021 65.393 174.021 65.393C174.021 65.393 174.691 63.8531 177.227 63.7128C178.714 63.6322 183.337 64.2109 183.337 64.2109C183.337 64.2109 180.054 61.0681 176.841 58.4128C173.628 55.7575 169.837 53.916 169.837 53.916L169.833 53.9195Z" fill="black" stroke="black" stroke-width="1.2" stroke-linecap="round" stroke-linejoin="round"/>
<path d="M174.021 65.3941C174.021 65.3941 179.767 60.6623 180.612 67.0847C181.457 73.5072 173.004 77.2253 173.004 77.2253" fill="#FF788F"/>
<path d="M174.021 65.3941C174.021 65.3941 179.767 60.6623 180.612 67.0847C181.457 73.5072 173.004 77.2253 173.004 77.2253" stroke="black" stroke-width="1.2" stroke-linecap="round" stroke-linejoin="round"/>
<path d="M188.756 39.8307L153.438 29.5499C153.438 29.5499 159.331 22.4609 163.344 22.4609C171.804 22.4539 182.379 29.0342 188.756 39.8307Z" fill="white" stroke="black" stroke-width="1.2" stroke-linecap="round" stroke-linejoin="round"/>
<path d="M131.508 49.4388C139.537 45.84 159.24 45.4085 168.675 51.1716C190.535 64.5181 190.198 72.954 190.198 72.954C190.198 72.954 199.865 56.5488 188.378 39.2456C176.89 21.946 151.719 23.1175 141.838 31.1009C131.666 39.3228 131.508 49.4388 131.508 49.4388Z" fill="white"/>
<path d="M180.745 31.502C189.372 42.1483 188.595 56.6487 186.887 60.8391C186.212 62.4975 185.661 63.6734 185.229 64.5018L188.153 68.0018V76.0236C188.153 76.0236 197.139 66.1565 193 50.502C189.959 39.002 184.5 34.502 184.5 34.502L180.745 31.502Z" fill="#FF788F"/>
<path d="M131.508 49.4388C139.537 45.84 159.24 45.4085 168.675 51.1716C190.535 64.5181 190.198 72.954 190.198 72.954C190.198 72.954 199.865 56.5488 188.378 39.2456C176.89 21.946 151.719 23.1175 141.838 31.1009C131.666 39.3228 131.508 49.4388 131.508 49.4388Z" stroke="black" stroke-width="1.2" stroke-linecap="round" stroke-linejoin="round"/>
<path d="M137.219 58.7373C137.219 58.7373 126.587 55.8926 127.615 50.7715C128.776 44.9874 147.166 44.0509 156.826 46.2817C175.624 50.6207 188.76 69.3549 188.76 69.3549C188.76 69.3549 175.259 50.4523 150.607 49.2281C139.548 48.6774 139.488 50.9925 139.488 50.9925L137.222 58.7338L137.219 58.7373Z" fill="black" stroke="black" stroke-width="1.2" stroke-linecap="round" stroke-linejoin="round"/>
<path d="M140.723 45.9908C140.723 45.9908 139.338 31.0799 154.343 26.0254" stroke="black" stroke-width="1.2" stroke-linecap="round" stroke-linejoin="round"/>
<path d="M150.632 46.2811C150.632 46.2811 149.33 28.8973 165.574 25.8105" stroke="black" stroke-width="1.2" stroke-linecap="round" stroke-linejoin="round"/>
<path d="M190.198 72.9505C187.883 75.3918 184.21 74.2659 184.21 74.2659L187.206 67.1699L190.201 72.9505H190.198Z" fill="black" stroke="black" stroke-width="1.2" stroke-linecap="round" stroke-linejoin="round"/>
<path d="M179.226 59.3896C180.096 55.5102 179.963 52.2095 180.58 52.0236C181.338 51.7991 186.101 56.4011 186.326 57.2114C186.438 57.6147 185.813 64.5528 185.35 65.8156" stroke="black" stroke-width="1.2" stroke-linecap="round" stroke-linejoin="round"/>
</svg>
